<svg version="1" xmlns="http://www.w3.org/2000/svg" width="2125.333" height="2125.333" viewBox="0 0 1594.000000 1594.000000"><path d="M359.2 75c-21.1 5.7-36.8 20.2-43.3 40.1-3.1 9.7-3.4 26.4-.5 34.9 7.5 22.1 22.8 36.8 43.3 41.8 4 .9 7.3 1.9 7.3 2.2 0 .3-3.2 1.3-7 2.2-20.2 4.9-36.6 20-43.1 39.9-3.1 9.7-3.4 26.4-.5 34.9 7.5 22.1 22.8 36.8 43.3 41.8 4 .9 7.3 1.9 7.3 2.2 0 .3-3.2 1.3-7 2.2-20.2 4.9-36.6 20-43.1 39.9-3.1 9.7-3.4 26.4-.5 34.9 7.5 22.1 22.8 36.8 43.3 41.8 4 .9 7.3 1.9 7.3 2.2 0 .3-3.2 1.3-7 2.2-20.2 4.9-36.6 20-43.1 39.9-3.1 9.7-3.4 26.4-.5 34.9 7.5 22.1 22.8 36.8 43.3 41.8 4 .9 7.3 1.9 7.3 2.2 0 .3-3.2 1.3-7 2.2-20.2 4.9-36.6 20-43.1 39.9-3.1 9.7-3.4 26.4-.5 34.9 7.5 22.1 22.8 36.8 43.3 41.8 4 .9 7.3 1.9 7.3 2.2 0 .3-3.2 1.3-7 2.2-20.2 4.9-36.6 20-43.1 39.9-3.1 9.7-3.4 26.4-.5 34.9 7.5 22.1 22.8 36.8 43.3 41.8 4 .9 7.3 1.9 7.3 2.2 0 .3-3.2 1.3-7 2.2-20.2 4.9-36.6 20-43.1 39.9-3.4 10.5-3.4 26.2.1 36.8 2.9 9.2 10.3 20.4 17.5 26.9 6.8 6 18.7 12 27.4 13.7 7.1 1.3 7 1.4-2.9 4-19.8 5.1-35.7 20-42.1 39.6-3.1 9.7-3.4 26.4-.5 34.9 7.5 22.1 22.8 36.8 43.3 41.8 4 .9 7.3 1.9 7.3 2.2 0 .3-3.2 1.3-7 2.2-20.2 4.9-36.6 20-43.1 39.9-3.1 9.7-3.4 26.4-.5 34.9 7.5 22.1 22.8 36.8 43.3 41.8 4 .9 7.3 1.9 7.3 2.2 0 .3-3.2 1.3-7 2.2-20.2 4.9-36.6 20-43.1 39.9-3.1 9.7-3.4 26.4-.5 34.9 7.5 22.1 22.8 36.8 43.3 41.8 4 .9 7.3 1.9 7.3 2.2 0 .3-3.2 1.3-7 2.2-20.2 4.9-36.6 20-43.1 39.9-3.1 9.7-3.4 26.4-.5 34.9 7.5 22.1 22.8 36.8 43.3 41.8 4 .9 7.3 1.9 7.3 2.2 0 .3-3.2 1.3-7 2.2-20.2 4.9-36.6 20-43.1 39.9-3.1 9.7-3.4 26.4-.5 34.9 5.5 16.4 16.8 30.3 29.6 36.7 8.3 4.2 20.5 7.3 28.5 7.3 6.8 0 18.4-2.7 25.6-5.9 7-3.1 16.2-10.3 21-16.3 5.4-6.8 10.6-17.7 12.3-25.9 1.4-6.7 1.6-6.6 3.5 1.6.6 2.7 3 8.8 5.3 13.5 7.6 15.7 21.2 26.4 39.2 31 9.9 2.5 18.2 2.5 27.7.1 9.8-2.6 15.4-5.2 22.7-10.5 10.9-8.1 19.7-21.9 22.6-35.7 1.4-6.7 1.6-6.6 3.5 1.6.6 2.7 3 8.8 5.3 13.5 7.6 15.7 21.2 26.4 39.2 31 9.9 2.5 18.2 2.5 27.7.1 9.8-2.6 15.4-5.2 22.7-10.5 10.9-8.1 19.7-21.9 22.6-35.7 1.4-6.7 1.6-6.6 3.5 1.6.6 2.7 3 8.8 5.3 13.5 7.6 15.7 21.2 26.4 39.2 31 9.9 2.5 18.2 2.5 27.7.1 9.8-2.6 15.4-5.2 22.7-10.5 10.9-8.1 19.7-21.9 22.6-35.7 1.4-6.7 1.6-6.6 3.5 1.6.6 2.7 3 8.8 5.3 13.5 7.6 15.7 21.2 26.4 39.2 31 9.9 2.5 18.2 2.5 27.7.1 9.8-2.6 15.4-5.2 22.7-10.5 10.9-8.1 19.7-21.9 22.6-35.7 1.4-6.7 1.6-6.6 3.5 1.6.6 2.7 3 8.8 5.3 13.5 7.6 15.7 21.2 26.4 39.2 31 9.9 2.5 18.2 2.5 27.7.1 9.8-2.6 15.4-5.2 22.7-10.5 10.9-8.1 19.7-21.9 22.6-35.7 1.4-6.7 1.6-6.6 3.5 1.6.6 2.7 3 8.8 5.3 13.5 7.6 15.7 21.2 26.4 39.2 31 9.9 2.5 18.2 2.5 27.7.1 9.8-2.6 15.4-5.2 22.7-10.5 10.9-8.1 20-22.4 22.5-35.5.6-3.4 1.4-6.1 1.8-6.1.4 0 .9 2.2 1.3 4.8 1.4 10.6 9.1 24.9 17.5 32.5 22 19.9 52.9 21.9 76.8 5.1 3.3-2.4 8-6.5 10.2-9.1 8.5-9.8 15.1-27.2 15.1-39.8 0-12.6-6.6-30-15.1-39.8-6.1-7-15.9-13.6-25.2-16.8-4.5-1.6-9.2-2.9-10.4-2.9-3.9 0-2.5-1.7 1.9-2.4 11.1-1.8 25.9-10.3 33.7-19.3 8.5-9.8 15.1-27.2 15.1-39.8 0-12.6-6.6-30-15.1-39.8-6.1-7-15.9-13.6-25.2-16.8-4.5-1.6-9.2-2.9-10.4-2.9-3.9 0-2.5-1.7 1.9-2.4 11.1-1.8 25.9-10.3 33.7-19.3 8.5-9.8 15.1-27.2 15.1-39.8 0-12.6-6.6-30-15.1-39.8-6.1-7-15.9-13.6-25.2-16.8-4.5-1.6-9.2-2.9-10.4-2.9-3.9 0-2.5-1.7 1.9-2.4 11.1-1.8 25.9-10.3 33.7-19.3 8.5-9.8 15.1-27.2 15.1-39.8 0-12.6-6.6-30-15.1-39.8-6.4-7.4-16.6-14-26.4-17.2-4.7-1.5-8.5-3.1-8.5-3.6 0-.4 2.4-1.5 5.3-2.3 17.8-5.2 30.6-15.9 38.4-32.1 8.3-17.6 8.1-35.3-.6-53-7.5-14.9-19.1-25-34.6-30-4.7-1.5-8.5-3.2-8.5-3.6 0-.5 1.9-1.3 4.3-1.9 6.4-1.5 19.6-8.5 25-13.1 15.6-13.4 23.5-36.9 19.3-56.9-1.9-9.1-8-21.8-13.7-28.3-6.1-7-15.9-13.6-25.2-16.8-4.5-1.6-9.2-2.9-10.4-2.9-3.9 0-2.5-1.7 1.9-2.4 11.1-1.8 25.9-10.3 33.7-19.3 8.5-9.8 15.1-27.2 15.1-39.8 0-12.6-6.6-30-15.1-39.8-6.4-7.4-16.6-14-26.4-17.2-4.7-1.5-8.5-3.1-8.5-3.6 0-.4 2.4-1.5 5.3-2.3 17.8-5.2 30.6-15.9 38.4-32.1 8.3-17.6 8.1-35.3-.6-53-7.5-14.9-19.1-25-34.6-30-4.7-1.5-8.5-3.1-8.5-3.6 0-.4 2.4-1.5 5.3-2.3 17.8-5.2 30.6-15.9 38.4-32.1 8.3-17.6 8.1-35.3-.6-53-4.9-9.8-10.2-16.1-18.8-22.2-6.3-4.5-20.4-10.3-25-10.3-3.9 0-2.5-1.7 1.9-2.4 11.1-1.8 25.9-10.3 33.7-19.3 8.5-9.8 15.1-27.2 15.1-39.8 0-12.6-6.6-30-15.1-39.8-6.4-7.4-16.6-14-26.4-17.2-4.7-1.5-8.5-3.1-8.5-3.6 0-.4 2.4-1.5 5.3-2.3 17.8-5.2 30.6-15.9 38.4-32.1 8.3-17.6 8.1-35.3-.6-53-7.5-14.9-19.1-25-34.6-30-4.7-1.5-8.5-3.1-8.5-3.6 0-.4 2.4-1.5 5.3-2.3 17.8-5.2 30.6-15.9 38.4-32.1 8.3-17.6 8.1-35.3-.6-53-7.3-14.6-19.2-25-34.5-30-15.9-5.3-30.1-4.4-45.1 3-10.7 5.2-18.6 11.9-24.4 20.9-4.5 6.8-9 18.3-9.1 22.7 0 5.1-1.4 3.9-2.7-2.3-1.6-8.2-8-21-13.7-27.4-14.2-16.1-38.2-23.7-58.4-18.6-16.4 4.2-28.7 12.6-37.1 25.6-4.5 6.8-9 18.3-9.1 22.7 0 5.1-1.4 3.9-2.7-2.3-1.6-8.2-8-21-13.7-27.4-14.2-16.1-38.2-23.7-58.4-18.6-16.4 4.2-28.7 12.6-37.1 25.6-4.5 6.8-9 18.3-9.1 22.7 0 5.1-1.4 3.9-2.7-2.3-1.6-8.2-8-21-13.7-27.4-14.2-16.1-38.2-23.7-58.4-18.6-16.4 4.2-28.7 12.6-37.1 25.6-4.5 6.8-9 18.3-9.1 22.7 0 5.1-1.4 3.9-2.7-2.3-1.6-8.2-8-21-13.7-27.4-14.2-16.1-38.2-23.7-58.4-18.6-16.4 4.2-28.7 12.6-37.1 25.6-4.5 6.8-9 18.3-9.1 22.7 0 5.1-1.4 3.9-2.7-2.3-1.6-8.2-8-21-13.7-27.4-14.2-16.1-38.2-23.7-58.4-18.6-16.4 4.2-28.7 12.6-37.1 25.6-4.5 6.8-9 18.3-9.1 22.7 0 5.1-1.4 3.9-2.7-2.3-1.6-8.2-8-21-13.7-27.4-14.2-16.1-38.2-23.7-58.4-18.6-16.4 4.2-28.7 12.6-37.1 25.6-4.5 6.8-9 18.3-9.1 22.7 0 5.1-1.4 3.9-2.7-2.3-1.6-8.2-8-21-13.7-27.4-14.2-16.1-39.2-23.9-59.4-18.4zm33 3.3c21.5 7.8 35.3 24.5 39.2 47.4l.6 3.3h-53v2.5c0 2-.5 2.5-2.5 2.5H374v58.3l-6.1-.7c-30.2-3.1-52.9-28.2-52.9-58.6 0-23.3 15.7-45.8 37.5-53.9 9.1-3.4 13.1-4 23.5-3.6 6.9.2 11.3 1 16.2 2.8zm121 0c21.5 7.8 35.3 24.5 39.2 47.4l.6 3.3h-58.5c-46.1 0-58.5-.3-58.5-1.3 0-.6.7-4 1.5-7.5 4.3-18.3 18.7-34.7 36-41.1 9.1-3.4 13.1-4 23.5-3.6 6.9.2 11.3 1 16.2 2.8zm121 0c20 7.3 34.1 23.2 38.3 43.2 2.8 13.6 1.5 24.5-4.5 37.1-7.7 16-22.1 27.7-39.2 31.8l-2.8.6v-57h-2.5c-2 0-2.5-.5-2.5-2.5V129h-32c-24.9 0-32-.3-32-1.3 0-.6.7-4 1.5-7.5 4.3-18.3 18.7-34.7 36-41.1 9.1-3.4 13.1-4 23.5-3.6 6.9.2 11.3 1 16.2 2.8zm121 0c15 5.5 26.7 15.6 33.2 28.9 11.5 23.4 7.4 49.3-10.8 67.4-28.3 28.2-75.3 20.7-93.2-14.8-11-21.8-7.4-47.8 9.1-65.6 8.7-9.4 19.4-15.5 32-18.2 7.2-1.6 22.3-.4 29.7 2.3zm121 0c21.5 7.8 35.3 24.5 39.2 47.4l.6 3.3h-53v2.5c0 2-.5 2.5-2.5 2.5H858v58.3l-6.1-.7c-30.2-3.1-52.9-28.2-52.9-58.6 0-23.3 15.7-45.8 37.5-53.9 9.1-3.4 13.1-4 23.5-3.6 6.9.2 11.3 1 16.2 2.8zm121 0c21.5 7.8 35.3 24.5 39.2 47.4l.6 3.3h-58.5c-46.1 0-58.5-.3-58.5-1.3 0-.6.7-4 1.5-7.5 4.3-18.3 18.7-34.7 36-41.1 9.1-3.4 13.1-4 23.5-3.6 6.9.2 11.3 1 16.2 2.8zm121 0c21.5 7.8 35.3 24.5 39.2 47.4l.6 3.3h-58.5c-46.1 0-58.5-.3-58.5-1.3 0-.6.7-4 1.5-7.5 4.3-18.3 18.7-34.7 36-41.1 9.1-3.4 13.1-4 23.5-3.6 6.9.2 11.3 1 16.2 2.8zm121 0c20 7.3 34.1 23.2 38.3 43.2 2.8 13.6 1.5 24.5-4.5 37.1-7.7 16-22.1 27.7-39.2 31.8l-2.8.6v-57h-2.5c-2 0-2.5-.5-2.5-2.5V129h-64.2l.7-4.3c1.1-6.9 4.4-15.8 8.1-21.8 7.3-12.1 22.9-23.3 36.8-26.5 9-2 23.4-1.2 31.8 1.9zm-807.5 62.4c-.3 1-.8 3.6-1.2 5.8-1.1 6.6-8 19.8-13.7 26.1-7.9 8.6-18.9 15.1-30 17.8l-2.8.6v-52h24.1c22.4 0 24 .1 23.6 1.7zm121 0c-.3 1-.8 3.6-1.2 5.8-.3 2.2-2.5 7.8-4.7 12.5-5.3 11.1-15 21-25.5 26.3-36.3 18-77.5-2.9-84.7-43.1l-.5-3.2h58.5c55.3 0 58.5.1 58.1 1.7zm63.3 24.9v26.7l-6.1-.7c-26.8-2.8-47.5-22.3-52.3-49.4l-.5-3.2H616v26.6zm299.7-24.9c-.3 1-.8 3.6-1.2 5.8-1.1 6.6-8 19.8-13.7 26.1-7.9 8.6-18.9 15.1-30 17.8l-2.8.6v-52h24.1c22.4 0 24 .1 23.6 1.7zm121 0c-.3 1-.8 3.6-1.2 5.8-.3 2.2-2.5 7.8-4.7 12.5-5.3 11.1-15 21-25.5 26.3-36.3 18-77.5-2.9-84.7-43.1l-.5-3.2h58.5c55.3 0 58.5.1 58.1 1.7zm121 0c-.3 1-.8 3.6-1.2 5.8-.3 2.2-2.5 7.8-4.7 12.5-5.3 11.1-15 21-25.5 26.3-36.3 18-77.5-2.9-84.7-43.1l-.5-3.2h58.5c55.3 0 58.5.1 58.1 1.7zm63.3 24.8V192h-3.2c-13.1-.1-28.1-7-38.8-17.9-9.5-9.6-14-18.4-16.4-31.9l-.5-3.2h58.9v26.5zm-786-22.1c0 3.3 3.4 12.6 7.2 19.9 4.3 8.3 15.4 19.3 23.8 23.5 3.6 1.8 9.8 4 13.7 5 4 .9 7.3 1.9 7.3 2.2 0 .3-3.2 1.3-7 2.2-14.9 3.6-27.7 12.5-35.9 25.2-4.5 6.8-9 18.3-9.1 22.7 0 5.1-1.4 3.9-2.7-2.3-1.6-8-8-20.8-13.4-27.1-6.4-7.4-16.6-14-26.4-17.2-4.7-1.5-8.5-3.1-8.5-3.6 0-.4 2.4-1.5 5.3-2.3 17.9-5.2 30.6-15.9 38.4-32.3 1.9-3.9 4-9.8 4.6-13.1 1.1-5.8 2.7-7.5 2.7-2.8zm121 0c0 3.3 3.4 12.6 7.2 19.9 4.3 8.3 15.4 19.3 23.8 23.5 3.6 1.8 9.8 4 13.7 5 4 .9 7.3 1.9 7.3 2.2 0 .3-3.2 1.3-7 2.2-14.9 3.6-27.7 12.5-35.9 25.2-4.5 6.8-9 18.3-9.1 22.7 0 5.1-1.4 3.9-2.7-2.3-1.6-7.9-8-20.8-13.4-27.1-6.1-7-15.9-13.6-25.2-16.8-4.5-1.6-9.2-2.9-10.4-2.9-3.9 0-2.5-1.7 1.9-2.4 11.1-1.8 25.9-10.3 33.7-19.3 5.5-6.3 11.9-19.3 13.4-27 1.1-5.9 2.7-7.6 2.7-2.9zm121 0c0 3.3 3.4 12.6 7.2 19.9 4.3 8.3 15.4 19.3 23.8 23.5 3.6 1.8 9.8 4 13.7 5 4 .9 7.3 1.9 7.3 2.2 0 .3-3.2 1.3-7 2.2-14.9 3.6-27.7 12.5-35.9 25.2-4.5 6.8-9 18.3-9.1 22.7 0 5.1-1.4 3.9-2.7-2.3-1.6-8-8-20.8-13.4-27.1-6.4-7.4-16.6-14-26.4-17.2-4.7-1.5-8.5-3.1-8.5-3.6 0-.4 2.4-1.5 5.3-2.3 17.9-5.2 30.6-15.9 38.4-32.3 1.9-3.9 4-9.8 4.6-13.1 1.1-5.8 2.7-7.5 2.7-2.8zm121 0c0 3.3 3.4 12.6 7.2 19.9 4.3 8.3 15.4 19.3 23.8 23.5 3.6 1.8 9.8 4 13.7 5 4 .9 7.3 1.9 7.3 2.2 0 .3-3.2 1.3-7 2.2-14.9 3.6-27.7 12.5-35.9 25.2-4.5 6.8-9 18.3-9.1 22.7 0 5.1-1.4 3.9-2.7-2.3-1.6-7.9-8-20.8-13.4-27.1-6.1-7-15.9-13.6-25.2-16.8-4.5-1.6-9.2-2.9-10.4-2.9-3.9 0-2.5-1.7 1.9-2.4 11.1-1.8 25.9-10.3 33.7-19.3 5.5-6.3 11.9-19.3 13.4-27 1.1-5.9 2.7-7.6 2.7-2.9zm121 0c0 3.3 3.4 12.6 7.2 19.9 4.3 8.3 15.4 19.3 23.8 23.5 3.6 1.8 9.8 4 13.7 5 4 .9 7.3 1.9 7.3 2.2 0 .3-3.2 1.3-7 2.2-14.9 3.6-27.7 12.5-35.9 25.2-4.5 6.8-9 18.3-9.1 22.7 0 5.1-1.4 3.9-2.7-2.3-1.6-8-8-20.8-13.4-27.1-6.4-7.4-16.6-14-26.4-17.2-4.7-1.5-8.5-3.1-8.5-3.6 0-.4 2.4-1.5 5.3-2.3 17.9-5.2 30.6-15.9 38.4-32.3 1.9-3.9 4-9.8 4.6-13.1 1.1-5.8 2.7-7.5 2.7-2.8zm121 0c0 3.3 3.4 12.6 7.2 19.9 4.3 8.3 15.4 19.3 23.8 23.5 3.6 1.8 9.8 4 13.7 5 4 .9 7.3 1.9 7.3 2.2 0 .3-3.2 1.3-7 2.2-14.9 3.6-27.7 12.5-35.9 25.2-4.5 6.8-9 18.3-9.1 22.7 0 5.1-1.4 3.9-2.7-2.3-1.6-7.9-8-20.8-13.4-27.1-6.1-7-15.9-13.6-25.2-16.8-4.5-1.6-9.2-2.9-10.4-2.9-3.9 0-2.5-1.7 1.9-2.4 11.1-1.8 25.9-10.3 33.7-19.3 5.5-6.3 11.9-19.3 13.4-27 1.1-5.9 2.7-7.6 2.7-2.9zm121.4 1.4c1.4 10.6 9.1 24.9 17.5 32.5 8.7 7.8 21.5 14.3 30.4 15.4 2.6.3 4.7.9 4.7 1.3s-2.3 1-5.1 1.3c-7.1.9-22.1 8.4-29 14.6-3.1 2.7-7.5 7.9-9.8 11.5-4.5 6.8-9 18.3-9.1 22.7 0 5.1-1.4 3.9-2.7-2.3-1.6-7.9-8-20.8-13.4-27.1-6.1-7-15.9-13.6-25.2-16.8-4.5-1.6-9.2-2.9-10.4-2.9-3.9 0-2.5-1.7 1.9-2.4 11.1-1.8 25.9-10.3 33.7-19.3 5.5-6.3 11.9-19.3 13.4-27.1.6-3.4 1.4-6.2 1.8-6.2.4 0 .9 2.2 1.3 4.8zM374 225.5V255h2.5c2 0 2.5.5 2.5 2.5v2.5h26.6c24.8 0 26.5.1 26.1 1.7-.3 1-.8 3.6-1.2 5.8-.3 2.2-2.5 7.8-4.7 12.5-14.8 30.9-55.2 42.5-83.5 24-30.8-20.2-36.4-62.3-11.8-88.8 10.6-11.5 25.6-18.7 39.8-19.1l3.7-.1v29.5zm139.2-26.2c20 7.3 34.1 23.2 38.3 43.2 2.8 13.6 1.5 24.5-4.5 37.1-7.7 16-22.1 27.7-39.2 31.8l-2.8.6v-57h-2.5c-2 0-2.5-.5-2.5-2.5V250h-32c-24.9 0-32-.3-32-1.3 0-.6.7-4 1.5-7.5 4.3-18.3 18.7-34.7 36-41.1 9.1-3.4 13.1-4 23.5-3.6 6.9.2 11.3 1 16.2 2.8zM616 254.6v58.7l-6.1-.7c-30.2-3.1-52.9-28.2-52.9-58.6 0-23.3 15.7-45.8 37.5-53.9 6.9-2.6 12.4-3.8 17.8-4l3.7-.1v58.6zm139.2-55.3c15 5.5 26.7 15.6 33.2 28.9 11.5 23.4 7.4 49.3-10.8 67.4-28.3 28.2-75.3 20.7-93.2-14.8-11-21.8-7.4-47.8 9.1-65.6 8.7-9.4 19.4-15.5 32-18.2 7.2-1.6 22.3-.4 29.7 2.3zM858 225.5V255h2.5c2 0 2.5.5 2.5 2.5v2.5h26.6c24.8 0 26.5.1 26.1 1.7-.3 1-.8 3.6-1.2 5.8-.3 2.2-2.5 7.8-4.7 12.5-14.8 30.9-55.2 42.5-83.5 24-30.8-20.2-36.4-62.3-11.8-88.8 10.6-11.5 25.6-18.7 39.8-19.1l3.7-.1v29.5zm139.2-26.2c21.5 7.8 35.3 24.5 39.2 47.4l.6 3.3h-58.5c-46.1 0-58.5-.3-58.5-1.3 0-.6.7-4 1.5-7.5 4.3-18.3 18.7-34.7 36-41.1 9.1-3.4 13.1-4 23.5-3.6 6.9.2 11.3 1 16.2 2.8zm121 0c20 7.3 34.1 23.2 38.3 43.2 2.8 13.6 1.5 24.5-4.5 37.1-7.7 16-22.1 27.7-39.2 31.8l-2.8.6v-57h-2.5c-2 0-2.5-.5-2.5-2.5V250h-32c-24.9 0-32-.3-32-1.3 0-.6.7-4 1.5-7.5 4.3-18.3 18.7-34.7 36-41.1 9.1-3.4 13.1-4 23.5-3.6 6.9.2 11.3 1 16.2 2.8zm102.8 55.2V313h-3.2c-13.1-.1-28.1-7-38.8-17.9-14.5-14.7-20.1-34.4-15.5-54 5.8-24.5 29.7-44.5 53.8-45l3.7-.1v58.5zm-826.6-54.4c19.4 7.2 33.3 24.7 37 46.6l.6 3.3h-48v-53.2l2.5.6c1.4.4 5 1.6 7.9 2.7zm242 0c17.9 6.6 32.1 23.4 36.1 42.4 2.8 13.6 1.5 24.5-4.5 37.1-7.7 16-22.1 27.7-39.2 31.8l-2.8.6V196.8l2.5.6c1.4.4 5 1.6 7.9 2.7zm242 0c19.4 7.2 33.3 24.7 37 46.6l.6 3.3h-48v-53.2l2.5.6c1.4.4 5 1.6 7.9 2.7zm363 0c17.9 6.6 32.1 23.4 36.1 42.4 2.8 13.6 1.5 24.5-4.5 37.1-7.7 16-22.1 27.7-39.2 31.8l-2.8.6V196.8l2.5.6c1.4.4 5 1.6 7.9 2.7zM495 286.6v26.7l-6.1-.7c-26.8-2.8-47.5-22.3-52.3-49.4l-.5-3.2H495v26.6zm541.7-24.9c-.3 1-.8 3.6-1.2 5.8-.3 2.2-2.5 7.8-4.7 12.5-5.3 11.1-15 21-25.5 26.3-36.3 18-77.5-2.9-84.7-43.1l-.5-3.2h58.5c55.3 0 58.5.1 58.1 1.7zm63.3 24.9v26.7l-6.1-.7c-26.8-2.8-47.5-22.3-52.3-49.4l-.5-3.2h58.9v26.6zm-665-22.2c0 3.3 3.4 12.6 7.2 19.9 4.3 8.3 15.4 19.3 23.8 23.5 3.6 1.8 9.8 4 13.7 5 4 .9 7.3 1.9 7.3 2.2 0 .3-3.2 1.3-7 2.2-14.9 3.6-27.7 12.5-35.9 25.2-4.5 6.8-9 18.3-9.1 22.7 0 5.1-1.4 3.9-2.7-2.3-1.6-7.9-8-20.8-13.4-27.1-6.1-7-15.9-13.6-25.2-16.8-4.5-1.6-9.2-2.9-10.4-2.9-3.9 0-2.5-1.7 1.9-2.4 11.1-1.8 25.9-10.3 33.7-19.3 5.5-6.3 11.9-19.3 13.4-27 1.1-5.9 2.7-7.6 2.7-2.9zm121 0c0 3.3 3.4 12.6 7.2 19.9 4.3 8.3 15.4 19.3 23.8 23.5 3.6 1.8 9.8 4 13.7 5 4 .9 7.3 1.9 7.3 2.2 0 .3-3.2 1.3-7 2.2-14.9 3.6-27.7 12.5-35.9 25.2-4.5 6.8-9 18.3-9.1 22.7 0 5.1-1.4 3.9-2.7-2.3-1.6-8-8-20.8-13.4-27.1-6.4-7.4-16.6-14-26.4-17.2-4.7-1.5-8.5-3.1-8.5-3.6 0-.4 2.4-1.5 5.3-2.3 17.9-5.2 30.6-15.9 38.4-32.3 1.9-3.9 4-9.8 4.6-13.1 1.1-5.8 2.7-7.5 2.7-2.8zm121 0c0 3.3 3.4 12.6 7.2 19.9 4.3 8.3 15.4 19.3 23.8 23.5 3.6 1.8 9.8 4 13.7 5 4 .9 7.3 1.9 7.3 2.2 0 .3-3.2 1.3-7 2.2-14.9 3.6-27.7 12.5-35.9 25.2-4.5 6.8-9 18.3-9.1 22.7 0 5.1-1.4 3.9-2.7-2.3-1.6-8-8-20.8-13.4-27.1-6.4-7.4-16.6-14-26.4-17.2-4.7-1.5-8.5-3.1-8.5-3.6 0-.4 2.4-1.5 5.3-2.3 17.9-5.2 30.6-15.9 38.4-32.3 1.9-3.9 4-9.8 4.6-13.1 1.1-5.8 2.7-7.5 2.7-2.8zm121 0c0 3.3 3.4 12.6 7.2 19.9 4.3 8.3 15.4 19.3 23.8 23.5 3.6 1.8 9.8 4 13.7 5 4 .9 7.3 1.9 7.3 2.2 0 .3-3.2 1.3-7 2.2-14.9 3.6-27.7 12.5-35.9 25.2-4.5 6.8-9 18.3-9.1 22.7 0 5.1-1.4 3.9-2.7-2.3-1.6-7.9-8-20.8-13.4-27.1-6.1-7-15.9-13.6-25.2-16.8-4.5-1.6-9.2-2.9-10.4-2.9-3.9 0-2.5-1.7 1.9-2.4 11.1-1.8 25.9-10.3 33.7-19.3 5.5-6.3 11.9-19.3 13.4-27 1.1-5.9 2.7-7.6 2.7-2.9zm121 0c0 3.3 3.4 12.6 7.2 19.9 4.3 8.3 15.4 19.3 23.8 23.5 3.6 1.8 9.8 4 13.7 5 4 .9 7.3 1.9 7.3 2.2 0 .3-3.2 1.3-7 2.2-14.9 3.6-27.7 12.5-35.9 25.2-4.5 6.8-9 18.3-9.1 22.7 0 5.1-1.4 3.9-2.7-2.3-1.6-7.9-8-20.8-13.4-27.1-6.1-7-15.9-13.6-25.2-16.8-4.5-1.6-9.2-2.9-10.4-2.9-3.9 0-2.5-1.7 1.9-2.4 11.1-1.8 25.9-10.3 33.7-19.3 5.5-6.3 11.9-19.3 13.4-27 1.1-5.9 2.7-7.6 2.7-2.9zm121 0c0 3.3 3.4 12.6 7.2 19.9 4.3 8.3 15.4 19.3 23.8 23.5 3.6 1.8 9.8 4 13.7 5 4 .9 7.3 1.9 7.3 2.2 0 .3-3.2 1.3-7 2.2-14.9 3.6-27.7 12.5-35.9 25.2-4.5 6.8-9 18.3-9.1 22.7 0 5.1-1.4 3.9-2.7-2.3-1.6-7.9-8-20.8-13.4-27.1-6.1-7-15.9-13.6-25.2-16.8-4.5-1.6-9.2-2.9-10.4-2.9-3.9 0-2.5-1.7 1.9-2.4 11.1-1.8 25.9-10.3 33.7-19.3 5.5-6.3 11.9-19.3 13.4-27 1.1-5.9 2.7-7.6 2.7-2.9zm121.4 1.4c1.4 10.6 9.1 24.9 17.5 32.5 8.7 7.8 21.5 14.3 30.4 15.4 2.6.3 4.7.9 4.7 1.3s-2.3 1-5.1 1.3c-7.1.9-22.1 8.4-29 14.6-3.1 2.7-7.5 7.9-9.8 11.5-4.5 6.8-9 18.3-9.1 22.7 0 5.1-1.4 3.9-2.7-2.3-1.6-8-8-20.8-13.4-27.1-6.4-7.4-16.6-14-26.4-17.2-4.7-1.5-8.5-3.1-8.5-3.6 0-.4 2.4-1.5 5.3-2.3 17.9-5.2 30.6-15.9 38.4-32.3 1.9-3.9 4-9.9 4.6-13.2.6-3.4 1.4-6.1 1.8-6.1.4 0 .9 2.2 1.3 4.8zm-769.2 54.5c15 5.5 26.7 15.6 33.2 28.9 11.5 23.4 7.4 49.3-10.8 67.4-28.3 28.2-75.3 20.7-93.2-14.8-11-21.8-7.4-47.8 9.1-65.6 8.7-9.4 19.4-15.5 32-18.2 7.2-1.6 22.3-.4 29.7 2.3zM495 375.6v58.7l-6.1-.7c-30.2-3.1-52.9-28.2-52.9-58.6 0-23.3 15.7-45.8 37.5-53.9 6.9-2.6 12.4-3.8 17.8-4l3.7-.1v58.6zm121 0v58.7l-6.1-.7c-30.2-3.1-52.9-28.2-52.9-58.6 0-23.3 15.7-45.8 37.5-53.9 6.9-2.6 12.4-3.8 17.8-4l3.7-.1v58.6zm139.2-55.3c15 5.5 26.7 15.6 33.2 28.9 11.5 23.4 7.4 49.3-10.8 67.4-28.3 28.2-75.3 20.7-93.2-14.8-11-21.8-7.4-47.8 9.1-65.6 8.7-9.4 19.4-15.5 32-18.2 7.2-1.6 22.3-.4 29.7 2.3zm121 0c15 5.5 26.7 15.6 33.2 28.9 11.5 23.4 7.4 49.3-10.8 67.4-28.3 28.2-75.3 20.7-93.2-14.8-11-21.8-7.4-47.8 9.1-65.6 8.7-9.4 19.4-15.5 32-18.2 7.2-1.6 22.3-.4 29.7 2.3zm121 0c21.5 7.8 35.3 24.5 39.2 47.4l.6 3.3h-53v2.5c0 2-.5 2.5-2.5 2.5H979v58.3l-6.1-.7c-30.2-3.1-52.9-28.2-52.9-58.6 0-23.3 15.7-45.8 37.5-53.9 9.1-3.4 13.1-4 23.5-3.6 6.9.2 11.3 1 16.2 2.8zM1100 344v27h-29.5c-22.9 0-29.5-.3-29.5-1.3 0-.6.7-4 1.5-7.5 3.2-13.5 13.2-27.9 24.8-35.5 8.2-5.4 20.1-9.3 29-9.6l3.7-.1v27zm121 1.2v28.3l-20.7 20.8-20.8 20.8 3.5 2.9c1.9 1.6 3.7 3 4 3 .3 0 9.9-9.4 21.4-20.9 18.1-18.1 20.8-21.2 19.7-22.5-1.2-1.4-1-1.6.8-1.6 2.1 0 2.1-.1 2.1-29.1v-29.1l2.5.6c16.9 4.3 31.6 15.9 39 30.9 11.4 23.3 7.2 49.3-10.9 67.2-23.7 23.5-59.3 23.3-82.6-.4-14.5-14.7-20.1-34.4-15.5-54 5.8-24.5 29.7-44.5 53.8-45l3.7-.1v28.2zm-705.6-24.1c17.9 6.6 32.1 23.4 36.1 42.4 2.8 13.6 1.5 24.5-4.5 37.1-7.7 16-22.1 27.7-39.2 31.8l-2.8.6V317.8l2.5.6c1.4.4 5 1.6 7.9 2.7zm121 0c17.9 6.6 32.1 23.4 36.1 42.4 2.8 13.6 1.5 24.5-4.5 37.1-7.7 16-22.1 27.7-39.2 31.8l-2.8.6V317.8l2.5.6c1.4.4 5 1.6 7.9 2.7zm484 0c13 4.8 24.9 15.6 31.1 28.2 11.4 23.3 7.2 49.2-10.9 67.3-34 33.9-90.5 15.4-99-32.4l-.5-3.2h63.9v-2.5c0-2 .5-2.5 2.5-2.5h2.5v-58.2l2.5.6c1.4.4 5 1.6 7.9 2.7zm-83.7 61.6c-.3 1-.8 3.6-1.2 5.8-1.1 6.6-8 19.8-13.7 26.1-7.9 8.6-18.9 15.1-30 17.8l-2.8.6v-52h24.1c22.4 0 24 .1 23.6 1.7zM435 385.4c0 3.3 3.4 12.6 7.2 19.9 4.3 8.3 15.4 19.3 23.8 23.5 3.6 1.8 9.8 4 13.7 5 4 .9 7.3 1.9 7.3 2.2 0 .3-3.2 1.3-7 2.2-14.9 3.6-27.7 12.5-35.9 25.2-4.5 6.8-9 18.3-9.1 22.7 0 5.1-1.4 3.9-2.7-2.3-1.6-7.9-8-20.8-13.4-27.1-6.1-7-15.9-13.6-25.2-16.8-4.5-1.6-9.2-2.9-10.4-2.9-3.9 0-2.5-1.7 1.9-2.4 11.1-1.8 25.9-10.3 33.7-19.3 5.5-6.3 11.9-19.3 13.4-27 1.1-5.9 2.7-7.6 2.7-2.9zm121 0c0 3.3 3.4 12.6 7.2 19.9 4.3 8.3 15.4 19.3 23.8 23.5 3.6 1.8 9.8 4 13.7 5 4 .9 7.3 1.9 7.3 2.2 0 .3-3.2 1.3-7 2.2-14.9 3.6-27.7 12.5-35.9 25.2-4.5 6.8-9 18.3-9.1 22.7 0 5.1-1.4 3.9-2.7-2.3-1.6-8-8-20.8-13.4-27.1-6.4-7.4-16.6-14-26.4-17.2-4.7-1.5-8.5-3.1-8.5-3.6 0-.4 2.4-1.5 5.3-2.3 17.9-5.2 30.6-15.9 38.4-32.3 1.9-3.9 4-9.8 4.6-13.1 1.1-5.8 2.7-7.5 2.7-2.8zm121 0c0 3.3 3.4 12.6 7.2 19.9 4.3 8.3 15.4 19.3 23.8 23.5 3.6 1.8 9.8 4 13.7 5 4 .9 7.3 1.9 7.3 2.2 0 .3-3.2 1.3-7 2.2-14.9 3.6-27.7 12.5-35.9 25.2-4.5 6.8-9 18.3-9.1 22.7 0 5.1-1.4 3.9-2.7-2.3-1.6-8-8-20.8-13.4-27.1-6.4-7.4-16.6-14-26.4-17.2-4.7-1.5-8.5-3.1-8.5-3.6 0-.4 2.4-1.5 5.3-2.3 17.9-5.2 30.6-15.9 38.4-32.3 1.9-3.9 4-9.8 4.6-13.1 1.1-5.8 2.7-7.5 2.7-2.8zm121 0c0 3.3 3.4 12.6 7.2 19.9 4.3 8.3 15.4 19.3 23.8 23.5 3.6 1.8 9.8 4 13.7 5 4 .9 7.3 1.9 7.3 2.2 0 .3-3.2 1.3-7 2.2-14.9 3.6-27.7 12.5-35.9 25.2-4.5 6.8-9 18.3-9.1 22.7 0 5.1-1.4 3.9-2.7-2.3-1.6-7.9-8-20.8-13.4-27.1-6.1-7-15.9-13.6-25.2-16.8-4.5-1.6-9.2-2.9-10.4-2.9-3.9 0-2.5-1.7 1.9-2.4 11.1-1.8 25.9-10.3 33.7-19.3 5.5-6.3 11.9-19.3 13.4-27 1.1-5.9 2.7-7.6 2.7-2.9zm121 0c0 3.3 3.4 12.6 7.2 19.9 4.3 8.3 15.4 19.3 23.8 23.5 3.6 1.8 9.8 4 13.7 5 4 .9 7.3 1.9 7.3 2.2 0 .3-3.2 1.3-7 2.2-14.9 3.6-27.7 12.5-35.9 25.2-4.5 6.8-9 18.3-9.1 22.7 0 5.1-1.4 3.9-2.7-2.3-1.6-7.9-8-20.8-13.4-27.1-6.1-7-15.9-13.6-25.2-16.8-4.5-1.6-9.2-2.9-10.4-2.9-3.9 0-2.5-1.7 1.9-2.4 11.1-1.8 25.9-10.3 33.7-19.3 5.5-6.3 11.9-19.3 13.4-27 1.1-5.9 2.7-7.6 2.7-2.9zm121 0c0 3.3 3.4 12.6 7.2 19.9 4.3 8.3 15.4 19.3 23.8 23.5 3.6 1.8 9.8 4 13.7 5 4 .9 7.3 1.9 7.3 2.2 0 .3-3.2 1.3-7 2.2-14.9 3.6-27.7 12.5-35.9 25.2-4.5 6.8-9 18.3-9.1 22.7 0 5.1-1.4 3.9-2.7-2.3-1.6-8-8-20.8-13.4-27.1-6.4-7.4-16.6-14-26.4-17.2-4.7-1.5-8.5-3.1-8.5-3.6 0-.4 2.4-1.5 5.3-2.3 17.9-5.2 30.6-15.9 38.4-32.3 1.9-3.9 4-9.8 4.6-13.1 1.1-5.8 2.7-7.5 2.7-2.8zm121.4 1.4c1.4 10.6 9.1 24.9 17.5 32.5 8.7 7.8 21.5 14.3 30.4 15.4 2.6.3 4.7.9 4.7 1.3s-2.3 1-5.1 1.3c-7.1.9-22.1 8.4-29 14.6-3.1 2.7-7.5 7.9-9.8 11.5-4.5 6.8-9 18.3-9.1 22.7 0 5.1-1.4 3.9-2.7-2.3-1.6-7.9-8-20.8-13.4-27.1-6.1-7-15.9-13.6-25.2-16.8-4.5-1.6-9.2-2.9-10.4-2.9-3.9 0-2.5-1.7 1.9-2.4 11.1-1.8 25.9-10.3 33.7-19.3 5.5-6.3 11.9-19.3 13.4-27.1.6-3.4 1.4-6.2 1.8-6.2.4 0 .9 2.2 1.3 4.8zm-769.2 54.5c15 5.5 26.7 15.6 33.2 28.9 11.5 23.4 7.4 49.3-10.8 67.4-28.3 28.2-75.3 20.7-93.2-14.8-11-21.8-7.4-47.8 9.1-65.6 8.7-9.4 19.4-15.5 32-18.2 7.2-1.6 22.3-.4 29.7 2.3zM495 496.6v58.7l-6.1-.7c-30.2-3.1-52.9-28.2-52.9-58.6 0-23.3 15.7-45.8 37.5-53.9 6.9-2.6 12.4-3.8 17.8-4l3.7-.1v58.6zm121 0v58.7l-6.1-.7c-30.2-3.1-52.9-28.2-52.9-58.6 0-23.3 15.7-45.8 37.5-53.9 6.9-2.6 12.4-3.8 17.8-4l3.7-.1v58.6zm139.2-55.3c15 5.5 26.7 15.6 33.2 28.9 11.5 23.4 7.4 49.3-10.8 67.4-28.3 28.2-75.3 20.7-93.2-14.8-11-21.8-7.4-47.8 9.1-65.6 8.7-9.4 19.4-15.5 32-18.2 7.2-1.6 22.3-.4 29.7 2.3zm121 0c15 5.5 26.7 15.6 33.2 28.9 11.5 23.4 7.4 49.3-10.8 67.4-28.3 28.2-75.3 20.7-93.2-14.8-11-21.8-7.4-47.8 9.1-65.6 8.7-9.4 19.4-15.5 32-18.2 7.2-1.6 22.3-.4 29.7 2.3zM979 467.5V497h2.5c2 0 2.5.5 2.5 2.5v2.5h26.6c24.8 0 26.5.1 26.1 1.7-.3 1-.8 3.6-1.2 5.8-.3 2.2-2.5 7.8-4.7 12.5-14.8 30.9-55.2 42.5-83.5 24-30.8-20.2-36.4-62.3-11.8-88.8 10.6-11.5 25.6-18.7 39.8-19.1l3.7-.1v29.5zm139.2-26.2c20 7.3 34.1 23.2 38.3 43.2 2.8 13.6 1.5 24.5-4.5 37.1-7.7 16-22.1 27.7-39.2 31.8l-2.8.6v-57h-2.5c-2 0-2.5-.5-2.5-2.5V492h-32c-24.9 0-32-.3-32-1.3 0-.6.7-4 1.5-7.5 4.3-18.3 18.7-34.7 36-41.1 9.1-3.4 13.1-4 23.5-3.6 6.9.2 11.3 1 16.2 2.8zm121 0c20 7.3 34.1 23.2 38.3 43.2 2.8 13.6 1.5 24.5-4.5 37.1-7.7 16-22.1 27.7-39.2 31.8l-2.8.6v-57h-2.7c-2.6 0-2.6 0-.8-2 1.9-2.1 1.7-2.3-19-23-11.6-11.6-21.2-21-21.5-21-.3 0-2.1 1.4-4 3l-3.5 2.9 20.8 20.8 20.7 20.8V555h-3.2c-13.1-.1-28.1-7-38.8-17.9-17.9-18.2-22-43.8-10.8-67 6.8-13.9 23.7-27.1 39.2-30.7 9-2 23.4-1.2 31.8 1.9zm-723.8.8c17.9 6.6 32.1 23.4 36.1 42.4 2.8 13.6 1.5 24.5-4.5 37.1-7.7 16-22.1 27.7-39.2 31.8l-2.8.6V438.8l2.5.6c1.4.4 5 1.6 7.9 2.7zm121 0c17.9 6.6 32.1 23.4 36.1 42.4 2.8 13.6 1.5 24.5-4.5 37.1-7.7 16-22.1 27.7-39.2 31.8l-2.8.6V438.8l2.5.6c1.4.4 5 1.6 7.9 2.7zm363 0c19.4 7.2 33.3 24.7 37 46.6l.6 3.3h-48v-53.2l2.5.6c1.4.4 5 1.6 7.9 2.7zm100.6 86.5v26.7l-6.1-.7c-26.8-2.8-47.5-22.3-52.3-49.4l-.5-3.2h58.9v26.6zm-665-22.2c0 3.3 3.4 12.6 7.2 19.9 4.3 8.3 15.4 19.3 23.8 23.5 3.6 1.8 9.8 4 13.7 5 4 .9 7.3 1.9 7.3 2.2 0 .3-3.2 1.3-7 2.2-14.9 3.6-27.7 12.5-35.9 25.2-4.5 6.8-9 18.3-9.1 22.7 0 5.1-1.4 3.9-2.7-2.3-1.6-7.9-8-20.8-13.4-27.1-6.1-7-15.9-13.6-25.2-16.8-4.5-1.6-9.2-2.9-10.4-2.9-3.9 0-2.5-1.7 1.9-2.4 11.1-1.8 25.9-10.3 33.7-19.3 5.5-6.3 11.9-19.3 13.4-27 1.1-5.9 2.7-7.6 2.7-2.9zm121 0c0 3.3 3.4 12.6 7.2 19.9 4.3 8.3 15.4 19.3 23.8 23.5 3.6 1.8 9.8 4 13.7 5 4 .9 7.3 1.9 7.3 2.2 0 .3-3.2 1.3-7 2.2-14.9 3.6-27.7 12.5-35.9 25.2-4.5 6.8-9 18.3-9.1 22.7 0 5.1-1.4 3.9-2.7-2.3-1.6-8-8-20.8-13.4-27.1-6.4-7.4-16.6-14-26.4-17.2-4.7-1.5-8.5-3.1-8.5-3.6 0-.4 2.4-1.5 5.3-2.3 17.9-5.2 30.6-15.9 38.4-32.3 1.9-3.9 4-9.8 4.6-13.1 1.1-5.8 2.7-7.5 2.7-2.8zm121 0c0 3.3 3.4 12.6 7.2 19.9 4.3 8.3 15.4 19.3 23.8 23.5 3.6 1.8 9.8 4 13.7 5 4 .9 7.3 1.9 7.3 2.2 0 .3-3.2 1.3-7 2.2-14.9 3.6-27.7 12.5-35.9 25.2-4.5 6.8-9 18.3-9.1 22.7 0 5.1-1.4 3.9-2.7-2.3-1.6-8-8-20.8-13.4-27.1-6.4-7.4-16.6-14-26.4-17.2-4.7-1.5-8.5-3.1-8.5-3.6 0-.4 2.4-1.5 5.3-2.3 17.9-5.2 30.6-15.9 38.4-32.3 1.9-3.9 4-9.8 4.6-13.1 1.1-5.8 2.7-7.5 2.7-2.8zm121 0c0 3.3 3.4 12.6 7.2 19.9 4.3 8.3 15.4 19.3 23.8 23.5 3.6 1.8 9.8 4 13.7 5 4 .9 7.3 1.9 7.3 2.2 0 .3-3.2 1.3-7 2.2-14.9 3.6-27.7 12.5-35.9 25.2-4.5 6.8-9 18.3-9.1 22.7 0 5.1-1.4 3.9-2.7-2.3-1.6-7.9-8-20.8-13.4-27.1-6.1-7-15.9-13.6-25.2-16.8-4.5-1.6-9.2-2.9-10.4-2.9-3.9 0-2.5-1.7 1.9-2.4 11.1-1.8 25.9-10.3 33.7-19.3 5.5-6.3 11.9-19.3 13.4-27 1.1-5.9 2.7-7.6 2.7-2.9zm121 0c0 3.3 3.4 12.6 7.2 19.9 4.3 8.3 15.4 19.3 23.8 23.5 3.6 1.8 9.8 4 13.7 5 4 .9 7.3 1.9 7.3 2.2 0 .3-3.2 1.3-7 2.2-14.9 3.6-27.7 12.5-35.9 25.2-4.5 6.8-9 18.3-9.1 22.7 0 5.1-1.4 3.9-2.7-2.3-1.6-7.9-8-20.8-13.4-27.1-6.1-7-15.9-13.6-25.2-16.8-4.5-1.6-9.2-2.9-10.4-2.9-3.9 0-2.5-1.7 1.9-2.4 11.1-1.8 25.9-10.3 33.7-19.3 5.5-6.3 11.9-19.3 13.4-27 1.1-5.9 2.7-7.6 2.7-2.9zm121 0c0 3.3 3.4 12.6 7.2 19.9 4.3 8.3 15.4 19.3 23.8 23.5 3.6 1.8 9.8 4 13.7 5 4 .9 7.3 1.9 7.3 2.2 0 .3-3.2 1.3-7 2.2-14.9 3.6-27.7 12.5-35.9 25.2-4.5 6.8-9 18.3-9.1 22.7 0 5.1-1.4 3.9-2.7-2.3-1.6-7.9-8-20.8-13.4-27.1-6.1-7-15.9-13.6-25.2-16.8-4.5-1.6-9.2-2.9-10.4-2.9-3.9 0-2.5-1.7 1.9-2.4 11.1-1.8 25.9-10.3 33.7-19.3 5.5-6.3 11.9-19.3 13.4-27 1.1-5.9 2.7-7.6 2.7-2.9zm121.4 1.4c1.4 10.6 9.1 24.9 17.5 32.5 8.7 7.8 21.5 14.3 30.4 15.4 2.6.3 4.7.9 4.7 1.3s-2.3 1-5.1 1.3c-7.1.9-22.1 8.4-29 14.6-3.1 2.7-7.5 7.9-9.8 11.5-4.5 6.8-9 18.3-9.1 22.7 0 5.1-1.4 3.9-2.7-2.3-1.6-8-8-20.8-13.4-27.1-6.4-7.4-16.6-14-26.4-17.2-4.7-1.5-8.5-3.1-8.5-3.6 0-.4 2.4-1.5 5.3-2.3 17.9-5.2 30.6-15.9 38.4-32.3 1.9-3.9 4-9.9 4.6-13.2.6-3.4 1.4-6.1 1.8-6.1.4 0 .9 2.2 1.3 4.8zm-769.2 54.5c21.5 7.8 35.3 24.5 39.2 47.4l.6 3.3h-53v2.5c0 2-.5 2.5-2.5 2.5H374v58.3l-6.1-.7c-30.2-3.1-52.9-28.2-52.9-58.6 0-23.3 15.7-45.8 37.5-53.9 9.1-3.4 13.1-4 23.5-3.6 6.9.2 11.3 1 16.2 2.8zM495 586v27h-29.5c-22.9 0-29.5-.3-29.5-1.3 0-.6.7-4 1.5-7.5 3.2-13.5 13.2-27.9 24.8-35.5 8.2-5.4 20.1-9.3 29-9.6l3.7-.1v27zm121 2.5V618h2.5c2 0 2.5.5 2.5 2.5v2.5h26.6c24.8 0 26.5.1 26.1 1.7-.3 1-.8 3.6-1.2 5.8-.3 2.2-2.5 7.8-4.7 12.5-14.8 30.9-55.2 42.5-83.5 24-30.8-20.2-36.4-62.3-11.8-88.8 10.6-11.5 25.6-18.7 39.8-19.1l3.7-.1v29.5zm139.2-26.2c20 7.3 34.1 23.2 38.3 43.2 2.8 13.6 1.5 24.5-4.5 37.1-7.7 16-22.1 27.7-39.2 31.8l-2.8.6v-57h-2.5c-2 0-2.5-.5-2.5-2.5V613h-32c-24.9 0-32-.3-32-1.3 0-.6.7-4 1.5-7.5 4.3-18.3 18.7-34.7 36-41.1 9.1-3.4 13.1-4 23.5-3.6 6.9.2 11.3 1 16.2 2.8zm121 0c21.5 7.8 35.3 24.5 39.2 47.4l.6 3.3h-53v2.5c0 2-.5 2.5-2.5 2.5H858v58.3l-6.1-.7c-30.2-3.1-52.9-28.2-52.9-58.6 0-23.3 15.7-45.8 37.5-53.9 9.1-3.4 13.1-4 23.5-3.6 6.9.2 11.3 1 16.2 2.8zm121 0c21.5 7.8 35.3 24.5 39.2 47.4l.6 3.3h-58.5c-46.1 0-58.5-.3-58.5-1.3 0-.6.7-4 1.5-7.5 4.3-18.3 18.7-34.7 36-41.1 9.1-3.4 13.1-4 23.5-3.6 6.9.2 11.3 1 16.2 2.8zM1100 586v27h-29.5c-22.9 0-29.5-.3-29.5-1.3 0-.6.7-4 1.5-7.5 3.2-13.5 13.2-27.9 24.8-35.5 8.2-5.4 20.1-9.3 29-9.6l3.7-.1v27zm121 31.5V676h-3.2c-13.1-.1-28.1-7-38.8-17.9-14.5-14.7-20.1-34.4-15.5-54 5.8-24.5 29.7-44.5 53.8-45l3.7-.1v58.5zm-705.6-54.4c13 4.8 24.9 15.6 31.1 28.2 11.4 23.3 7.2 49.2-10.9 67.3-34 33.9-90.5 15.4-99-32.4l-.5-3.2H500v-2.5c0-2 .5-2.5 2.5-2.5h2.5v-58.2l2.5.6c1.4.4 5 1.6 7.9 2.7zm121 0c19.4 7.2 33.3 24.7 37 46.6l.6 3.3h-48v-53.2l2.5.6c1.4.4 5 1.6 7.9 2.7zm484 0c13 4.8 24.9 15.6 31.1 28.2 11.4 23.3 7.2 49.2-10.9 67.3-34 33.9-90.5 15.4-99-32.4l-.5-3.2h63.9v-2.5c0-2 .5-2.5 2.5-2.5h2.5v-58.2l2.5.6c1.4.4 5 1.6 7.9 2.7zm121 0c17.9 6.6 32.1 23.4 36.1 42.4 2.8 13.6 1.5 24.5-4.5 37.1-7.7 16-22.1 27.7-39.2 31.8l-2.8.6V559.8l2.5.6c1.4.4 5 1.6 7.9 2.7zm-809.7 61.6c-.3 1-.8 3.6-1.2 5.8-1.1 6.6-8 19.8-13.7 26.1-7.9 8.6-18.9 15.1-30 17.8l-2.8.6v-52h24.1c22.4 0 24 .1 23.6 1.7zM737 649.6v26.7l-6.1-.7c-26.8-2.8-47.5-22.3-52.3-49.4l-.5-3.2H737v26.6zm178.7-24.9c-.3 1-.8 3.6-1.2 5.8-1.1 6.6-8 19.8-13.7 26.1-7.9 8.6-18.9 15.1-30 17.8l-2.8.6v-52h24.1c22.4 0 24 .1 23.6 1.7zm121 0c-.3 1-.8 3.6-1.2 5.8-.3 2.2-2.5 7.8-4.7 12.5-5.3 11.1-15 21-25.5 26.3-36.3 18-77.5-2.9-84.7-43.1l-.5-3.2h58.5c55.3 0 58.5.1 58.1 1.7zM435 627.4c0 3.3 3.4 12.6 7.2 19.9 4.3 8.3 15.4 19.3 23.8 23.5 3.6 1.8 9.8 4 13.7 5 4 .9 7.3 1.9 7.3 2.2 0 .3-3.2 1.3-7 2.2-14.9 3.6-27.7 12.5-35.9 25.2-4.5 6.8-9 18.3-9.1 22.7 0 5.1-1.4 3.9-2.7-2.3-1.6-8-8-20.8-13.4-27.1-6.4-7.4-16.6-14-26.4-17.2-4.7-1.5-8.5-3.1-8.5-3.6 0-.4 2.4-1.5 5.3-2.3 17.9-5.2 30.6-15.9 38.4-32.3 1.9-3.9 4-9.8 4.6-13.1 1.1-5.8 2.7-7.5 2.7-2.8zm121 0c0 3.3 3.4 12.6 7.2 19.9 4.3 8.3 15.4 19.3 23.8 23.5 3.6 1.8 9.8 4 13.7 5 4 .9 7.3 1.9 7.3 2.2 0 .3-3.2 1.3-7 2.2-14.9 3.6-27.7 12.5-35.9 25.2-4.5 6.8-9 18.3-9.1 22.7 0 5.1-1.4 3.9-2.7-2.3-1.6-7.9-8-20.8-13.4-27.1-6.1-7-15.9-13.6-25.2-16.8-4.5-1.6-9.2-2.9-10.4-2.9-3.9 0-2.5-1.7 1.9-2.4 11.1-1.8 25.9-10.3 33.7-19.3 5.5-6.3 11.9-19.3 13.4-27 1.1-5.9 2.7-7.6 2.7-2.9zm121 0c0 3.3 3.4 12.6 7.2 19.9 4.3 8.3 15.4 19.3 23.8 23.5 3.6 1.8 9.8 4 13.7 5 4 .9 7.3 1.9 7.3 2.2 0 .3-3.2 1.3-7 2.2-14.9 3.6-27.7 12.5-35.9 25.2-4.5 6.8-9 18.3-9.1 22.7 0 5.1-1.4 3.9-2.7-2.3-1.6-7.9-8-20.8-13.4-27.1-6.1-7-15.9-13.6-25.2-16.8-4.5-1.6-9.2-2.9-10.4-2.9-3.9 0-2.5-1.7 1.9-2.4 11.1-1.8 25.9-10.3 33.7-19.3 5.5-6.3 11.9-19.3 13.4-27 1.1-5.9 2.7-7.6 2.7-2.9zm121 0c0 3.3 3.4 12.6 7.2 19.9 4.3 8.3 15.4 19.3 23.8 23.5 3.6 1.8 9.8 4 13.7 5 4 .9 7.3 1.9 7.3 2.2 0 .3-3.2 1.3-7 2.2-14.9 3.6-27.7 12.5-35.9 25.2-4.5 6.8-9 18.3-9.1 22.7 0 5.1-1.4 3.9-2.7-2.3-1.6-8-8-20.8-13.4-27.1-6.4-7.4-16.6-14-26.4-17.2-4.7-1.5-8.5-3.1-8.5-3.6 0-.4 2.4-1.5 5.3-2.3 17.9-5.2 30.6-15.9 38.4-32.3 1.9-3.9 4-9.8 4.6-13.1 1.1-5.8 2.7-7.5 2.7-2.8zm121 0c0 3.3 3.4 12.6 7.2 19.9 4.3 8.3 15.4 19.3 23.8 23.5 3.6 1.8 9.8 4 13.7 5 4 .9 7.3 1.9 7.3 2.2 0 .3-3.2 1.3-7 2.2-14.9 3.6-27.7 12.5-35.9 25.2-4.5 6.8-9 18.3-9.1 22.7 0 5.1-1.4 3.9-2.7-2.3-1.6-8-8-20.8-13.4-27.1-6.4-7.4-16.6-14-26.4-17.2-4.7-1.5-8.5-3.1-8.5-3.6 0-.4 2.4-1.5 5.3-2.3 17.9-5.2 30.6-15.9 38.4-32.3 1.9-3.9 4-9.8 4.6-13.1 1.1-5.8 2.7-7.5 2.7-2.8zm121 0c0 3.3 3.4 12.6 7.2 19.9 4.3 8.3 15.4 19.3 23.8 23.5 3.6 1.8 9.8 4 13.7 5 4 .9 7.3 1.9 7.3 2.2 0 .3-3.2 1.3-7 2.2-14.9 3.6-27.7 12.5-35.9 25.2-4.5 6.8-9 18.3-9.1 22.7 0 5.1-1.4 3.9-2.7-2.3-1.6-7.9-8-20.8-13.4-27.1-6.1-7-15.9-13.6-25.2-16.8-4.5-1.6-9.2-2.9-10.4-2.9-3.9 0-2.5-1.7 1.9-2.4 11.1-1.8 25.9-10.3 33.7-19.3 5.5-6.3 11.9-19.3 13.4-27 1.1-5.9 2.7-7.6 2.7-2.9zm121.4 1.4c1.4 10.6 9.1 24.9 17.5 32.5 8.7 7.8 21.5 14.3 30.4 15.4 2.6.3 4.7.9 4.7 1.3s-2.3 1-5.1 1.3c-7.1.9-22.1 8.4-29 14.6-3.1 2.7-7.5 7.9-9.8 11.5-4.5 6.8-9 18.3-9.1 22.7 0 5.1-1.4 3.9-2.7-2.3-1.6-7.9-8-20.8-13.4-27.1-6.1-7-15.9-13.6-25.2-16.8-4.5-1.6-9.2-2.9-10.4-2.9-3.9 0-2.5-1.7 1.9-2.4 11.1-1.8 25.9-10.3 33.7-19.3 5.5-6.3 11.9-19.3 13.4-27.1.6-3.4 1.4-6.2 1.8-6.2.4 0 .9 2.2 1.3 4.8zM374 709.5V739h2.5c2 0 2.5.5 2.5 2.5v2.5h26.6c24.8 0 26.5.1 26.1 1.7-.3 1-.8 3.6-1.2 5.8-.3 2.2-2.5 7.8-4.7 12.5-14.8 30.9-55.2 42.5-83.5 24-30.8-20.2-36.4-62.3-11.8-88.8 10.6-11.5 25.6-18.7 39.8-19.1l3.7-.1v29.5zm139.2-26.2c21.5 7.8 35.3 24.5 39.2 47.4l.6 3.3h-58.5c-46.1 0-58.5-.3-58.5-1.3 0-.6.7-4 1.5-7.5 4.3-18.3 18.7-34.7 36-41.1 9.1-3.4 13.1-4 23.5-3.6 6.9.2 11.3 1 16.2 2.8zm121 0c21.5 7.8 35.3 24.5 39.2 47.4l.6 3.3h-58.5c-46.1 0-58.5-.3-58.5-1.3 0-.6.7-4 1.5-7.5 4.3-18.3 18.7-34.7 36-41.1 9.1-3.4 13.1-4 23.5-3.6 6.9.2 11.3 1 16.2 2.8zM737 707v27h-29.5c-22.9 0-29.5-.3-29.5-1.3 0-.6.7-4 1.5-7.5 3.2-13.5 13.2-27.9 24.8-35.5 8.2-5.4 20.1-9.3 29-9.6l3.7-.1v27zm121 2.5V739h2.5c2 0 2.5.5 2.5 2.5v2.5h26.6c24.8 0 26.5.1 26.1 1.7-.3 1-.8 3.6-1.2 5.8-.3 2.2-2.5 7.8-4.7 12.5-14.8 30.9-55.2 42.5-83.5 24-30.8-20.2-36.4-62.3-11.8-88.8 10.6-11.5 25.6-18.7 39.8-19.1l3.7-.1v29.5zm139.2-26.2c21.5 7.8 35.3 24.5 39.2 47.4l.6 3.3h-58.5c-46.1 0-58.5-.3-58.5-1.3 0-.6.7-4 1.5-7.5 4.3-18.3 18.7-34.7 36-41.1 9.1-3.4 13.1-4 23.5-3.6 6.9.2 11.3 1 16.2 2.8zm121 0c21.5 7.8 35.3 24.5 39.2 47.4l.6 3.3h-58.5c-46.1 0-58.5-.3-58.5-1.3 0-.6.7-4 1.5-7.5 4.3-18.3 18.7-34.7 36-41.1 9.1-3.4 13.1-4 23.5-3.6 6.9.2 11.3 1 16.2 2.8zM1221 707v27h-59.2l.7-4.3c1.1-6.9 4.4-15.8 8.1-21.8 9.2-15.3 29.7-27.5 46.7-27.8l3.7-.1v27zm-826.6-22.9c19.4 7.2 33.3 24.7 37 46.6l.6 3.3h-48v-53.2l2.5.6c1.4.4 5 1.6 7.9 2.7zm363 0c13 4.8 24.9 15.6 31.1 28.2 11.4 23.3 7.2 49.2-10.9 67.3-34 33.9-90.5 15.4-99-32.4l-.5-3.2H742v-2.5c0-2 .5-2.5 2.5-2.5h2.5v-58.2l2.5.6c1.4.4 5 1.6 7.9 2.7zm121 0c19.4 7.2 33.3 24.7 37 46.6l.6 3.3h-48v-53.2l2.5.6c1.4.4 5 1.6 7.9 2.7zm363 0c13 4.8 24.9 15.6 31.1 28.2 11.4 23.3 7.2 49.3-10.9 67.2-23.7 23.5-59.3 23.3-82.6-.4-9.5-9.6-14-18.4-16.4-31.9l-.5-3.2h63.9v-2.5c0-2 .5-2.5 2.5-2.5h2.5v-58.2l2.5.6c1.4.4 5 1.6 7.9 2.7zm-688.7 61.6c-.3 1-.8 3.6-1.2 5.8-.3 2.2-2.5 7.8-4.7 12.5-5.3 11.1-15 21-25.5 26.3-36.3 18-77.5-2.9-84.7-43.1l-.5-3.2h58.5c55.3 0 58.5.1 58.1 1.7zm121 0c-.3 1-.8 3.6-1.2 5.8-.3 2.2-2.5 7.8-4.7 12.5-5.3 11.1-15 21-25.5 26.3-36.3 18-77.5-2.9-84.7-43.1l-.5-3.2h58.5c55.3 0 58.5.1 58.1 1.7zm363 0c-.3 1-.8 3.6-1.2 5.8-.3 2.2-2.5 7.8-4.7 12.5-5.3 11.1-15 21-25.5 26.3-36.3 18-77.5-2.9-84.7-43.1l-.5-3.2h58.5c55.3 0 58.5.1 58.1 1.7zm121 0c-.3 1-.8 3.6-1.2 5.8-.3 2.2-2.5 7.8-4.7 12.5-5.3 11.1-15 21-25.5 26.3-36.3 18-77.5-2.9-84.7-43.1l-.5-3.2h58.5c55.3 0 58.5.1 58.1 1.7zM435 748.4c0 3.3 3.4 12.6 7.2 19.9 4.3 8.3 15.4 19.3 23.8 23.5 3.6 1.8 9.8 4 13.7 5 4 .9 7.3 1.9 7.3 2.2 0 .3-3.2 1.3-7 2.2-14.9 3.6-27.7 12.5-35.9 25.2-4.5 6.8-9 18.3-9.1 22.7 0 5.1-1.4 3.9-2.7-2.3-1.6-7.9-8-20.8-13.4-27.1-6.1-7-15.9-13.6-25.2-16.8-4.5-1.6-9.2-2.9-10.4-2.9-3.9 0-2.5-1.7 1.9-2.4 11.1-1.8 25.9-10.3 33.7-19.3 5.5-6.3 11.9-19.3 13.4-27 1.1-5.9 2.7-7.6 2.7-2.9zm121 0c0 3.3 3.4 12.6 7.2 19.9 4.3 8.3 15.4 19.3 23.8 23.5 3.6 1.8 9.8 4 13.7 5 4 .9 7.3 1.9 7.3 2.2 0 .3-3.2 1.3-7 2.2-14.9 3.6-27.7 12.5-35.9 25.2-4.5 6.8-9 18.3-9.1 22.7 0 5.1-1.4 3.9-2.7-2.3-1.6-7.9-8-20.8-13.4-27.1-6.1-7-15.9-13.6-25.2-16.8-4.5-1.6-9.2-2.9-10.4-2.9-3.9 0-2.5-1.7 1.9-2.4 11.1-1.8 25.9-10.3 33.7-19.3 5.5-6.3 11.9-19.3 13.4-27 1.1-5.9 2.7-7.6 2.7-2.9zm121 0c0 3.3 3.4 12.6 7.2 19.9 4.3 8.3 15.4 19.3 23.8 23.5 3.6 1.8 9.8 4 13.7 5 4 .9 7.3 1.9 7.3 2.2 0 .3-3.2 1.3-7 2.2-14.9 3.6-27.7 12.5-35.9 25.2-4.5 6.8-9 18.3-9.1 22.7 0 5.1-1.4 3.9-2.7-2.3-1.6-7.9-8-20.8-13.4-27.1-6.1-7-15.9-13.6-25.2-16.8-4.5-1.6-9.2-2.9-10.4-2.9-3.9 0-2.5-1.7 1.9-2.4 11.1-1.8 25.9-10.3 33.7-19.3 5.5-6.3 11.9-19.3 13.4-27 1.1-5.9 2.7-7.6 2.7-2.9zm121 0c0 3.3 3.4 12.6 7.2 19.9 4.3 8.3 15.4 19.3 23.8 23.5 3.6 1.8 9.8 4 13.7 5 4 .9 7.3 1.9 7.3 2.2 0 .3-3.2 1.3-7 2.2-14.9 3.6-27.7 12.5-35.9 25.2-4.5 6.8-9 18.3-9.1 22.7 0 5.1-1.4 3.9-2.7-2.3-1.6-7.9-8-20.8-13.4-27.1-6.1-7-15.9-13.6-25.2-16.8-4.5-1.6-9.2-2.9-10.4-2.9-3.9 0-2.5-1.7 1.9-2.4 11.1-1.8 25.9-10.3 33.7-19.3 5.5-6.3 11.9-19.3 13.4-27 1.1-5.9 2.7-7.6 2.7-2.9zm121 0c0 3.3 3.4 12.6 7.2 19.9 4.3 8.3 15.4 19.3 23.8 23.5 3.6 1.8 9.8 4 13.7 5 4 .9 7.3 1.9 7.3 2.2 0 .3-3.2 1.3-7 2.2-14.9 3.6-27.7 12.5-35.9 25.2-4.5 6.8-9 18.3-9.1 22.7 0 5.1-1.4 3.9-2.7-2.3-1.6-7.9-8-20.8-13.4-27.1-6.1-7-15.9-13.6-25.2-16.8-4.5-1.6-9.2-2.9-10.4-2.9-3.9 0-2.5-1.7 1.9-2.4 11.1-1.8 25.9-10.3 33.7-19.3 5.5-6.3 11.9-19.3 13.4-27 1.1-5.9 2.7-7.6 2.7-2.9zm121 0c0 3.3 3.4 12.6 7.2 19.9 4.3 8.3 15.4 19.3 23.8 23.5 3.6 1.8 9.8 4 13.7 5 4 .9 7.3 1.9 7.3 2.2 0 .3-3.2 1.3-7 2.2-14.9 3.6-27.7 12.5-35.9 25.2-4.5 6.8-9 18.3-9.1 22.7 0 5.1-1.4 3.9-2.7-2.3-1.6-7.9-8-20.8-13.4-27.1-6.1-7-15.9-13.6-25.2-16.8-4.5-1.6-9.2-2.9-10.4-2.9-3.9 0-2.5-1.7 1.9-2.4 11.1-1.8 25.9-10.3 33.7-19.3 5.5-6.3 11.9-19.3 13.4-27 1.1-5.9 2.7-7.6 2.7-2.9zm121.4 1.4c1.4 10.6 9.1 24.9 17.5 32.5 8.7 7.8 21.5 14.3 30.4 15.4 2.6.3 4.7.9 4.7 1.3s-2.3 1-5.1 1.3c-7.1.9-22.1 8.4-29 14.6-3.1 2.7-7.5 7.9-9.8 11.5-4.5 6.8-9 18.3-9.1 22.7 0 5.1-1.4 3.9-2.7-2.3-1.6-7.9-8-20.8-13.4-27.1-6.1-7-15.9-13.6-25.2-16.8-4.5-1.6-9.2-2.9-10.4-2.9-3.9 0-2.5-1.7 1.9-2.4 11.1-1.8 25.9-10.3 33.7-19.3 5.5-6.3 11.9-19.3 13.4-27.1.6-3.4 1.4-6.2 1.8-6.2.4 0 .9 2.2 1.3 4.8zm-769.2 54.5c21.5 7.8 35.3 24.5 39.2 47.4l.6 3.3h-53v2.5c0 2-.5 2.5-2.5 2.5H374v58.3l-6.4-.6c-24-2.3-45.5-21-51.1-44.8-6.6-28 9.2-57.9 36-67.8 9.1-3.4 13.1-4 23.5-3.6 6.9.2 11.3 1 16.2 2.8zm121 0c21.5 7.8 35.3 24.5 39.2 47.4l.6 3.3h-58.5c-46.1 0-58.5-.3-58.5-1.3 0-.6.7-4 1.5-7.5 4.3-18.3 18.7-34.7 36-41.1 9.1-3.4 13.1-4 23.5-3.6 6.9.2 11.3 1 16.2 2.8zm121 0c21.5 7.8 35.3 24.5 39.2 47.4l.6 3.3h-58.5c-46.1 0-58.5-.3-58.5-1.3 0-.6.7-4 1.5-7.5 4.3-18.3 18.7-34.7 36-41.1 9.1-3.4 13.1-4 23.5-3.6 6.9.2 11.3 1 16.2 2.8zm121 0c20 7.3 34.1 23.2 38.3 43.2 2.8 13.4 1.5 24.3-4.4 37-7.2 15.4-23.3 28.7-38.8 32l-3.3.7V860h-2.5c-2 0-2.5-.5-2.5-2.5V855h-32c-24.9 0-32-.3-32-1.3 0-.6.7-4 1.5-7.5 4.3-18.3 18.7-34.7 36-41.1 9.1-3.4 13.1-4 23.5-3.6 6.9.2 11.3 1 16.2 2.8zm121 0c21.5 7.8 35.3 24.5 39.2 47.4l.6 3.3h-53v2.5c0 2-.5 2.5-2.5 2.5H858v58.3l-6.4-.6c-24-2.3-45.5-21-51.1-44.8-6.6-28 9.2-57.9 36-67.8 9.1-3.4 13.1-4 23.5-3.6 6.9.2 11.3 1 16.2 2.8zm121 0c21.5 7.8 35.3 24.5 39.2 47.4l.6 3.3h-58.5c-46.1 0-58.5-.3-58.5-1.3 0-.6.7-4 1.5-7.5 4.3-18.3 18.7-34.7 36-41.1 9.1-3.4 13.1-4 23.5-3.6 6.9.2 11.3 1 16.2 2.8zm121 0c21.5 7.8 35.3 24.5 39.2 47.4l.6 3.3h-58.5c-46.1 0-58.5-.3-58.5-1.3 0-.6.7-4 1.5-7.5 4.3-18.3 18.7-34.7 36-41.1 9.1-3.4 13.1-4 23.5-3.6 6.9.2 11.3 1 16.2 2.8zm121 0c20 7.3 34.1 23.2 38.3 43.2 2.8 13.4 1.5 24.3-4.4 37-7.2 15.4-23.3 28.7-38.8 32l-3.3.7V860h-2.5c-2 0-2.5-.5-2.5-2.5V855h-64.2l.7-4.3c1.1-6.9 4.4-15.8 8.1-21.8 7.3-12.1 22.9-23.3 36.8-26.5 9-2 23.4-1.2 31.8 1.9zm-807.8 63.9c-1.9 11.1-7.3 22.3-14.5 30.2-8 8.8-19.9 16-29.6 18.1l-3.3.7V865h48l-.6 3.2zm121 0c-4.2 24.9-23.5 44.6-47.8 48.9-19.6 3.4-39.3-3.3-52.9-18.1-8.2-8.8-13.1-18.5-15.1-30.3l-.7-3.7H553l-.6 3.2zm121 0c-4.2 24.9-23.5 44.6-47.8 48.9-19.6 3.4-39.3-3.3-52.9-18.1-8.2-8.8-13.1-18.5-15.1-30.3l-.7-3.7H674l-.6 3.2zm63.6 23.4v26.7l-6.4-.6c-22-2.1-42.5-18.3-49.4-39.2-1.1-3.3-2.3-7.7-2.6-9.8l-.7-3.7H737v26.6zm178.4-23.4c-1.9 11.1-7.3 22.3-14.5 30.2-8 8.8-19.9 16-29.6 18.1l-3.3.7V865h48l-.6 3.2zm121 0c-4.2 24.9-23.5 44.6-47.8 48.9-19.6 3.4-39.3-3.3-52.9-18.1-8.2-8.8-13.1-18.5-15.1-30.3l-.7-3.7H1037l-.6 3.2zm121 0c-4.2 24.9-23.5 44.6-47.8 48.9-19.6 3.4-39.3-3.3-52.9-18.1-8.2-8.8-13.1-18.5-15.1-30.3l-.7-3.7H1158l-.6 3.2zm63.6 23.4v26.7l-6.5-.7c-25.7-2.6-47.4-23.1-51.9-48.9l-.7-3.7h59.1v26.6zm-786-22.4c.1 9.4 9.6 26.8 19.6 35.6 6.7 6 18.7 12 27.3 13.7 7.1 1.3 7 1.4-2.9 4-14.6 3.7-26.9 12.5-34.9 24.9-4.5 6.8-9 18.3-9.1 22.7 0 5.1-1.4 3.9-2.7-2.3-1.6-8-8-20.8-13.4-27.1-6.4-7.4-16.6-14-26.4-17.2-4.7-1.5-8.5-3.2-8.5-3.6 0-.5 1.9-1.3 4.3-1.9 6.4-1.5 19.6-8.5 25-13.1 7.3-6.3 14.3-17 17.2-26.1 1.4-4.4 2.5-9 2.5-10.4 0-1.3.5-2.4 1-2.4.6 0 1 1.5 1 3.2zm121 0c.1 9.4 9.6 26.8 19.6 35.6 6.7 6 18.7 12 27.3 13.7 7.1 1.3 7 1.4-2.9 4-14.6 3.7-26.9 12.5-34.9 24.9-4.5 6.8-9 18.3-9.1 22.7 0 5.1-1.4 3.9-2.7-2.3-1.6-7.9-8-20.8-13.4-27.1-6.1-7-15.9-13.6-25.2-16.8-4.5-1.6-9.2-2.9-10.4-2.9-4.8 0-2.8-1.6 3.4-2.8 7.8-1.5 19.8-7.5 26.6-13.3 7.3-6.3 14.3-16.9 17.2-26.1 1.4-4.4 2.5-9 2.5-10.4 0-1.3.5-2.4 1-2.4.6 0 1 1.5 1 3.2zm121 0c.1 9.4 9.6 26.8 19.6 35.6 6.7 6 18.7 12 27.3 13.7 7.1 1.3 7 1.4-2.9 4-14.6 3.7-26.9 12.5-34.9 24.9-4.5 6.8-9 18.3-9.1 22.7 0 5.1-1.4 3.9-2.7-2.3-1.6-7.9-8-20.8-13.4-27.1-6.1-7-15.9-13.6-25.2-16.8-4.5-1.6-9.2-2.9-10.4-2.9-4.8 0-2.8-1.6 3.4-2.8 7.8-1.5 19.8-7.5 26.6-13.3 7.3-6.3 14.3-16.9 17.2-26.1 1.4-4.4 2.5-9 2.5-10.4 0-1.3.5-2.4 1-2.4.6 0 1 1.5 1 3.2zm121 0c.1 9.4 9.6 26.8 19.6 35.6 6.7 6 18.7 12 27.3 13.7 7.1 1.3 7 1.4-2.9 4-14.6 3.7-26.9 12.5-34.9 24.9-4.5 6.8-9 18.3-9.1 22.7 0 5.1-1.4 3.9-2.7-2.3-1.6-8-8-20.8-13.4-27.1-6.4-7.4-16.6-14-26.4-17.2-4.7-1.5-8.5-3.2-8.5-3.6 0-.5 1.9-1.3 4.3-1.9 6.4-1.5 19.6-8.5 25-13.1 7.3-6.3 14.3-17 17.2-26.1 1.4-4.4 2.5-9 2.5-10.4 0-1.3.5-2.4 1-2.4.6 0 1 1.5 1 3.2zm121 0c.1 9.4 9.6 26.8 19.6 35.6 6.7 6 18.7 12 27.3 13.7 7.1 1.3 7 1.4-2.9 4-14.6 3.7-26.9 12.5-34.9 24.9-4.5 6.8-9 18.3-9.1 22.7 0 5.1-1.4 3.9-2.7-2.3-1.6-8-8-20.8-13.4-27.1-6.4-7.4-16.6-14-26.4-17.2-4.7-1.5-8.5-3.2-8.5-3.6 0-.5 1.9-1.3 4.3-1.9 6.4-1.5 19.6-8.5 25-13.1 7.3-6.3 14.3-17 17.2-26.1 1.4-4.4 2.5-9 2.5-10.4 0-1.3.5-2.4 1-2.4.6 0 1 1.5 1 3.2zm121 0c.1 9.4 9.6 26.8 19.6 35.6 6.7 6 18.7 12 27.3 13.7 7.1 1.3 7 1.4-2.9 4-14.6 3.7-26.9 12.5-34.9 24.9-4.5 6.8-9 18.3-9.1 22.7 0 5.1-1.4 3.9-2.7-2.3-1.6-7.9-8-20.8-13.4-27.1-6.1-7-15.9-13.6-25.2-16.8-4.5-1.6-9.2-2.9-10.4-2.9-4.8 0-2.8-1.6 3.4-2.8 7.8-1.5 19.8-7.5 26.6-13.3 7.3-6.3 14.3-16.9 17.2-26.1 1.4-4.4 2.5-9 2.5-10.4 0-1.3.5-2.4 1-2.4.6 0 1 1.5 1 3.2zm121 0c.1 9.3 9.7 26.9 19.3 35.3 8.2 7.1 23.8 14.5 30.9 14.5 4.8 0 3.1 1.7-2.3 2.3-7.1.9-22.1 8.4-29 14.6-3.1 2.7-7.5 7.9-9.8 11.5-4.5 6.8-9 18.3-9.1 22.7 0 5.1-1.4 3.9-2.7-2.3-1.6-7.9-8-20.8-13.4-27.1-6.1-7-15.9-13.6-25.2-16.8-4.5-1.6-9.2-2.9-10.4-2.9-4.8 0-2.8-1.6 3.4-2.8 7.8-1.5 19.8-7.5 26.6-13.3 7.3-6.3 14.3-16.9 17.2-26.1 1.4-4.4 2.5-9 2.5-10.4 0-1.3.5-2.4 1-2.4.6 0 1 1.5 1 3.2zm-787 82.3V981h2.5c2 0 2.5.5 2.5 2.5v2.5h26.6c24.8 0 26.5.1 26.1 1.7-.3 1-.8 3.6-1.2 5.8-.3 2.2-2.5 7.8-4.7 12.5-14.8 30.9-55.2 42.5-83.5 24-30.8-20.2-36.4-62.3-11.8-88.8 10.6-11.5 25.6-18.7 39.8-19.1l3.7-.1v29.5zm139.2-26.2c21.5 7.8 35.3 24.5 39.2 47.4l.6 3.3h-58.5c-46.1 0-58.5-.3-58.5-1.3 0-.6.7-4 1.5-7.5 4.3-18.3 18.7-34.7 36-41.1 9.1-3.4 13.1-4 23.5-3.6 6.9.2 11.3 1 16.2 2.8zm121 0c20 7.3 34.1 23.2 38.3 43.2 2.8 13.6 1.5 24.5-4.5 37.1-7.7 16-22.1 27.7-39.2 31.8l-2.8.6v-57h-2.5c-2 0-2.5-.5-2.5-2.5V976h-32c-24.9 0-32-.3-32-1.3 0-.6.7-4 1.5-7.5 4.3-18.3 18.7-34.7 36-41.1 9.1-3.4 13.1-4 23.5-3.6 6.9.2 11.3 1 16.2 2.8zM737 980.6v58.7l-6.1-.7c-30.2-3.1-52.9-28.2-52.9-58.6 0-23.3 15.7-45.8 37.5-53.9 6.9-2.6 12.4-3.8 17.8-4l3.7-.1v58.6zm121-29.1V981h2.5c2 0 2.5.5 2.5 2.5v2.5h26.6c24.8 0 26.5.1 26.1 1.7-.3 1-.8 3.6-1.2 5.8-.3 2.2-2.5 7.8-4.7 12.5-14.8 30.9-55.2 42.5-83.5 24-30.8-20.2-36.4-62.3-11.8-88.8 10.6-11.5 25.6-18.7 39.8-19.1l3.7-.1v29.5zm139.2-26.2c21.5 7.8 35.3 24.5 39.2 47.4l.6 3.3h-58.5c-46.1 0-58.5-.3-58.5-1.3 0-.6.7-4 1.5-7.5 4.3-18.3 18.7-34.7 36-41.1 9.1-3.4 13.1-4 23.5-3.6 6.9.2 11.3 1 16.2 2.8zm121 0c20 7.3 34.1 23.2 38.3 43.2 2.8 13.6 1.5 24.5-4.5 37.1-7.7 16-22.1 27.7-39.2 31.8l-2.8.6v-57h-2.5c-2 0-2.5-.5-2.5-2.5V976h-32c-24.9 0-32-.3-32-1.3 0-.6.7-4 1.5-7.5 4.3-18.3 18.7-34.7 36-41.1 9.1-3.4 13.1-4 23.5-3.6 6.9.2 11.3 1 16.2 2.8zm102.8 55.2v58.5h-3.2c-13.1-.1-28.1-7-38.8-17.9-14.5-14.7-20.1-34.4-15.5-54 5.8-24.5 29.7-44.5 53.8-45l3.7-.1v58.5zm-826.6-54.4c19.4 7.2 33.3 24.7 37 46.6l.6 3.3h-48v-53.2l2.5.6c1.4.4 5 1.6 7.9 2.7zm363 0c17.9 6.6 32.1 23.4 36.1 42.4 2.8 13.6 1.5 24.5-4.5 37.1-7.7 16-22.1 27.7-39.2 31.8l-2.8.6V922.8l2.5.6c1.4.4 5 1.6 7.9 2.7zm121 0c19.4 7.2 33.3 24.7 37 46.6l.6 3.3h-48v-53.2l2.5.6c1.4.4 5 1.6 7.9 2.7zm363 0c17.9 6.6 32.1 23.4 36.1 42.4 2.8 13.6 1.5 24.5-4.5 37.1-7.7 16-22.1 27.7-39.2 31.8l-2.8.6V922.8l2.5.6c1.4.4 5 1.6 7.9 2.7zm-688.7 61.6c-.3 1-.8 3.6-1.2 5.8-.3 2.2-2.5 7.8-4.7 12.5-5.3 11.1-15 21-25.5 26.3-36.3 18-77.5-2.9-84.7-43.1l-.5-3.2h58.5c55.3 0 58.5.1 58.1 1.7zm63.3 24.9v26.7l-6.1-.7c-26.8-2.8-47.5-22.3-52.3-49.4l-.5-3.2H616v26.6zm420.7-24.9c-.3 1-.8 3.6-1.2 5.8-.3 2.2-2.5 7.8-4.7 12.5-5.3 11.1-15 21-25.5 26.3-36.3 18-77.5-2.9-84.7-43.1l-.5-3.2h58.5c55.3 0 58.5.1 58.1 1.7zm63.3 24.9v26.7l-6.1-.7c-26.8-2.8-47.5-22.3-52.3-49.4l-.5-3.2h58.9v26.6zm-665-22.2c0 3.3 3.4 12.6 7.2 19.9 4.3 8.3 15.4 19.3 23.8 23.5 3.6 1.8 9.8 4 13.7 5 4 .9 7.3 1.9 7.3 2.2 0 .3-3.2 1.3-7 2.2-14.9 3.6-27.7 12.5-35.9 25.2-4.5 6.8-9 18.3-9.1 22.7 0 5.1-1.4 3.9-2.7-2.3-1.6-7.9-8-20.8-13.4-27.1-6.1-7-15.9-13.6-25.2-16.8-4.5-1.6-9.2-2.9-10.4-2.9-3.9 0-2.5-1.7 1.9-2.4 11.1-1.8 25.9-10.3 33.7-19.3 5.5-6.3 11.9-19.3 13.4-27 1.1-5.9 2.7-7.6 2.7-2.9zm121 0c0 3.3 3.4 12.6 7.2 19.9 4.3 8.3 15.4 19.3 23.8 23.5 3.6 1.8 9.8 4 13.7 5 4 .9 7.3 1.9 7.3 2.2 0 .3-3.2 1.3-7 2.2-14.9 3.6-27.7 12.5-35.9 25.2-4.5 6.8-9 18.3-9.1 22.7 0 5.1-1.4 3.9-2.7-2.3-1.6-7.9-8-20.8-13.4-27.1-6.1-7-15.9-13.6-25.2-16.8-4.5-1.6-9.2-2.9-10.4-2.9-3.9 0-2.5-1.7 1.9-2.4 11.1-1.8 25.9-10.3 33.7-19.3 5.5-6.3 11.9-19.3 13.4-27 1.1-5.9 2.7-7.6 2.7-2.9zm121 0c0 3.3 3.4 12.6 7.2 19.9 4.3 8.3 15.4 19.3 23.8 23.5 3.6 1.8 9.8 4 13.7 5 4 .9 7.3 1.9 7.3 2.2 0 .3-3.2 1.3-7 2.2-14.9 3.6-27.7 12.5-35.9 25.2-4.5 6.8-9 18.3-9.1 22.7 0 5.1-1.4 3.9-2.7-2.3-1.6-8-8-20.8-13.4-27.1-6.4-7.4-16.6-14-26.4-17.2-4.7-1.5-8.5-3.1-8.5-3.6 0-.4 2.4-1.5 5.3-2.3 17.9-5.2 30.6-15.9 38.4-32.3 1.9-3.9 4-9.8 4.6-13.1 1.1-5.8 2.7-7.5 2.7-2.8zm121 0c0 3.3 3.4 12.6 7.2 19.9 4.3 8.3 15.4 19.3 23.8 23.5 3.6 1.8 9.8 4 13.7 5 4 .9 7.3 1.9 7.3 2.2 0 .3-3.2 1.3-7 2.2-14.9 3.6-27.7 12.5-35.9 25.2-4.5 6.8-9 18.3-9.1 22.7 0 5.1-1.4 3.9-2.7-2.3-1.6-8-8-20.8-13.4-27.1-6.4-7.4-16.6-14-26.4-17.2-4.7-1.5-8.5-3.1-8.5-3.6 0-.4 2.4-1.5 5.3-2.3 17.9-5.2 30.6-15.9 38.4-32.3 1.9-3.9 4-9.8 4.6-13.1 1.1-5.8 2.7-7.5 2.7-2.8zm121 0c0 3.3 3.4 12.6 7.2 19.9 4.3 8.3 15.4 19.3 23.8 23.5 3.6 1.8 9.8 4 13.7 5 4 .9 7.3 1.9 7.3 2.2 0 .3-3.2 1.3-7 2.2-14.9 3.6-27.7 12.5-35.9 25.2-4.5 6.8-9 18.3-9.1 22.7 0 5.1-1.4 3.9-2.7-2.3-1.6-7.9-8-20.8-13.4-27.1-6.1-7-15.9-13.6-25.2-16.8-4.5-1.6-9.2-2.9-10.4-2.9-3.9 0-2.5-1.7 1.9-2.4 11.1-1.8 25.9-10.3 33.7-19.3 5.5-6.3 11.9-19.3 13.4-27 1.1-5.9 2.7-7.6 2.7-2.9zm121 0c0 3.3 3.4 12.6 7.2 19.9 4.3 8.3 15.4 19.3 23.8 23.5 3.6 1.8 9.8 4 13.7 5 4 .9 7.3 1.9 7.3 2.2 0 .3-3.2 1.3-7 2.2-14.9 3.6-27.7 12.5-35.9 25.2-4.5 6.8-9 18.3-9.1 22.7 0 5.1-1.4 3.9-2.7-2.3-1.6-7.9-8-20.8-13.4-27.1-6.1-7-15.9-13.6-25.2-16.8-4.5-1.6-9.2-2.9-10.4-2.9-3.9 0-2.5-1.7 1.9-2.4 11.1-1.8 25.9-10.3 33.7-19.3 5.5-6.3 11.9-19.3 13.4-27 1.1-5.9 2.7-7.6 2.7-2.9zm121.4 1.4c1.4 10.6 9.1 24.9 17.5 32.5 8.7 7.8 21.5 14.3 30.4 15.4 2.6.3 4.7.9 4.7 1.3s-2.3 1-5.1 1.3c-7.1.9-22.1 8.4-29 14.6-3.1 2.7-7.5 7.9-9.8 11.5-4.5 6.8-9 18.3-9.1 22.7 0 5.1-1.4 3.9-2.7-2.3-1.6-8-8-20.8-13.4-27.1-6.4-7.4-16.6-14-26.4-17.2-4.7-1.5-8.5-3.1-8.5-3.6 0-.4 2.4-1.5 5.3-2.3 17.9-5.2 30.6-15.9 38.4-32.3 1.9-3.9 4-9.9 4.6-13.2.6-3.4 1.4-6.1 1.8-6.1.4 0 .9 2.2 1.3 4.8zm-769.2 54.5c15 5.5 26.7 15.6 33.2 28.9 11.5 23.4 7.4 49.3-10.8 67.4-28.3 28.2-75.3 20.7-93.2-14.8-11-21.8-7.4-47.8 9.1-65.6 8.7-9.4 19.4-15.5 32-18.2 7.2-1.6 22.3-.4 29.7 2.3zm121 0c21.5 7.8 35.3 24.5 39.2 47.4l.6 3.3h-53v2.5c0 2-.5 2.5-2.5 2.5H495v58.3l-6.1-.7c-30.2-3.1-52.9-28.2-52.9-58.6 0-23.3 15.7-45.8 37.5-53.9 9.1-3.4 13.1-4 23.5-3.6 6.9.2 11.3 1 16.2 2.8zM616 1070v27h-29.5c-22.9 0-29.5-.3-29.5-1.3 0-.6.7-4 1.5-7.5 3.2-13.5 13.2-27.9 24.8-35.5 8.2-5.4 20.1-9.3 29-9.6l3.7-.1v27zm121 1.2v28.3l-20.7 20.8-20.8 20.8 3.5 2.9c1.9 1.6 3.7 3 4 3 .3 0 9.9-9.4 21.4-20.9 18.1-18.1 20.8-21.2 19.7-22.5-1.2-1.4-1-1.6.8-1.6 2.1 0 2.1-.1 2.1-29.1v-29.1l2.5.6c16.9 4.3 31.6 15.9 39 30.9 11.4 23.3 7.2 49.2-10.9 67.3-28.3 28.2-75.3 20.7-93.2-14.8-11-21.8-7.4-47.8 9.1-65.6 10.6-11.5 25.6-18.7 39.8-19.1l3.7-.1v28.2zm139.2-24.9c15 5.5 26.7 15.6 33.2 28.9 11.5 23.4 7.4 49.3-10.8 67.4-28.3 28.2-75.3 20.7-93.2-14.8-11-21.8-7.4-47.8 9.1-65.6 8.7-9.4 19.4-15.5 32-18.2 7.2-1.6 22.3-.4 29.7 2.3zm121 0c15 5.5 26.7 15.6 33.2 28.9 11.5 23.4 7.4 49.3-10.8 67.4-28.3 28.2-75.3 20.7-93.2-14.8-11-21.8-7.4-47.8 9.1-65.6 8.7-9.4 19.4-15.5 32-18.2 7.2-1.6 22.3-.4 29.7 2.3zm102.8 24.9v28.3l-20.7 20.8-20.8 20.8 3.5 2.9c1.9 1.6 3.7 3 4 3 .3 0 9.9-9.4 21.4-20.9 18.1-18.1 20.8-21.2 19.7-22.5-1.2-1.4-1-1.6.8-1.6 2.1 0 2.1-.1 2.1-29.1v-29.1l2.5.6c16.9 4.3 31.6 15.9 39 30.9 11.4 23.3 7.2 49.2-10.9 67.3-28.3 28.2-75.3 20.7-93.2-14.8-11-21.8-7.4-47.8 9.1-65.6 10.6-11.5 25.6-18.7 39.8-19.1l3.7-.1v28.2zm121 0v28.3l-20.7 20.8-20.8 20.8 3.5 2.9c1.9 1.6 3.7 3 4 3 .3 0 9.9-9.4 21.4-20.9 18.1-18.1 20.8-21.2 19.7-22.5-1.2-1.4-1-1.6.8-1.6 2.1 0 2.1-.1 2.1-29.1v-29.1l2.5.6c16.9 4.3 31.6 15.9 39 30.9 11.4 23.3 7.2 49.3-10.9 67.2-23.7 23.5-59.3 23.3-82.6-.4-14.5-14.7-20.1-34.4-15.5-54 5.8-24.5 29.7-44.5 53.8-45l3.7-.1v28.2zm-584.6-24.1c13 4.8 24.9 15.6 31.1 28.2 11.4 23.3 7.2 49.2-10.9 67.3-34 33.9-90.5 15.4-99-32.4l-.5-3.2H621v-2.5c0-2 .5-2.5 2.5-2.5h2.5v-58.2l2.5.6c1.4.4 5 1.6 7.9 2.7zm-83.7 61.6c-.3 1-.8 3.6-1.2 5.8-1.1 6.6-8 19.8-13.7 26.1-7.9 8.6-18.9 15.1-30 17.8l-2.8.6v-52h24.1c22.4 0 24 .1 23.6 1.7zm-117.7 2.7c0 3.3 3.4 12.6 7.2 19.9 4.3 8.3 15.4 19.3 23.8 23.5 3.6 1.8 9.8 4 13.7 5 4 .9 7.3 1.9 7.3 2.2 0 .3-3.2 1.3-7 2.2-14.9 3.6-27.7 12.5-35.9 25.2-4.5 6.8-9 18.3-9.1 22.7 0 5.1-1.4 3.9-2.7-2.3-1.6-7.9-8-20.8-13.4-27.1-6.1-7-15.9-13.6-25.2-16.8-4.5-1.6-9.2-2.9-10.4-2.9-3.9 0-2.5-1.7 1.9-2.4 11.1-1.8 25.9-10.3 33.7-19.3 5.5-6.3 11.9-19.3 13.4-27 1.1-5.9 2.7-7.6 2.7-2.9zm121 0c0 3.3 3.4 12.6 7.2 19.9 4.3 8.3 15.4 19.3 23.8 23.5 3.6 1.8 9.8 4 13.7 5 4 .9 7.3 1.9 7.3 2.2 0 .3-3.2 1.3-7 2.2-14.9 3.6-27.7 12.5-35.9 25.2-4.5 6.8-9 18.3-9.1 22.7 0 5.1-1.4 3.9-2.7-2.3-1.6-8-8-20.8-13.4-27.1-6.4-7.4-16.6-14-26.4-17.2-4.7-1.5-8.5-3.1-8.5-3.6 0-.4 2.4-1.5 5.3-2.3 17.9-5.2 30.6-15.9 38.4-32.3 1.9-3.9 4-9.8 4.6-13.1 1.1-5.8 2.7-7.5 2.7-2.8zm121 0c0 3.3 3.4 12.6 7.2 19.9 4.3 8.3 15.4 19.3 23.8 23.5 3.6 1.8 9.8 4 13.7 5 4 .9 7.3 1.9 7.3 2.2 0 .3-3.2 1.3-7 2.2-14.9 3.6-27.7 12.5-35.9 25.2-4.5 6.8-9 18.3-9.1 22.7 0 5.1-1.4 3.9-2.7-2.3-1.6-7.9-8-20.8-13.4-27.1-6.1-7-15.9-13.6-25.2-16.8-4.5-1.6-9.2-2.9-10.4-2.9-3.9 0-2.5-1.7 1.9-2.4 11.1-1.8 25.9-10.3 33.7-19.3 5.5-6.3 11.9-19.3 13.4-27 1.1-5.9 2.7-7.6 2.7-2.9zm121 0c0 3.3 3.4 12.6 7.2 19.9 4.3 8.3 15.4 19.3 23.8 23.5 3.6 1.8 9.8 4 13.7 5 4 .9 7.3 1.9 7.3 2.2 0 .3-3.2 1.3-7 2.2-14.9 3.6-27.7 12.5-35.9 25.2-4.5 6.8-9 18.3-9.1 22.7 0 5.1-1.4 3.9-2.7-2.3-1.6-7.9-8-20.8-13.4-27.1-6.1-7-15.9-13.6-25.2-16.8-4.5-1.6-9.2-2.9-10.4-2.9-3.9 0-2.5-1.7 1.9-2.4 11.1-1.8 25.9-10.3 33.7-19.3 5.5-6.3 11.9-19.3 13.4-27 1.1-5.9 2.7-7.6 2.7-2.9zm121 0c0 3.3 3.4 12.6 7.2 19.9 4.3 8.3 15.4 19.3 23.8 23.5 3.6 1.8 9.8 4 13.7 5 4 .9 7.3 1.9 7.3 2.2 0 .3-3.2 1.3-7 2.2-14.9 3.6-27.7 12.5-35.9 25.2-4.5 6.8-9 18.3-9.1 22.7 0 5.1-1.4 3.9-2.7-2.3-1.6-7.9-8-20.8-13.4-27.1-6.1-7-15.9-13.6-25.2-16.8-4.5-1.6-9.2-2.9-10.4-2.9-3.9 0-2.5-1.7 1.9-2.4 11.1-1.8 25.9-10.3 33.7-19.3 5.5-6.3 11.9-19.3 13.4-27 1.1-5.9 2.7-7.6 2.7-2.9zm121 0c0 3.3 3.4 12.6 7.2 19.9 4.3 8.3 15.4 19.3 23.8 23.5 3.6 1.8 9.8 4 13.7 5 4 .9 7.3 1.9 7.3 2.2 0 .3-3.2 1.3-7 2.2-14.9 3.6-27.7 12.5-35.9 25.2-4.5 6.8-9 18.3-9.1 22.7 0 5.1-1.4 3.9-2.7-2.3-.7-3.5-3.2-10.2-5.6-15-3.7-7.3-4.2-9-3.1-9.9 2-1.6 1.8-2.1-2.2-5.3-2.4-1.9-3.9-2.5-4.6-1.8-.7.7-3.2-.6-7.9-4-6.7-4.9-20.6-10.8-25.6-10.8-3.9 0-2.5-1.7 1.9-2.4 11.1-1.8 25.9-10.3 33.7-19.3 5.5-6.3 11.9-19.3 13.4-27 1.1-5.9 2.7-7.6 2.7-2.9zm121.4 1.4c1.4 10.6 9.1 24.9 17.5 32.5 8.7 7.8 21.5 14.3 30.4 15.4 2.6.3 4.7.9 4.7 1.3s-2.3 1-5.1 1.3c-7.1.9-22.1 8.4-29 14.6-3.1 2.7-7.5 7.9-9.8 11.5-4.5 6.8-9 18.3-9.1 22.7 0 5.1-1.4 3.9-2.7-2.3-.7-3.5-3.2-10.2-5.6-15-3.7-7.3-4.2-9-3.1-9.9 2-1.6 1.8-2.1-2.2-5.3-2.4-1.9-3.9-2.5-4.6-1.8-.7.7-3.2-.6-7.9-4-6.7-4.9-20.6-10.8-25.6-10.8-3.9 0-2.5-1.7 1.9-2.4 11.1-1.8 25.9-10.3 33.7-19.3 5.5-6.3 11.9-19.3 13.4-27.1.6-3.4 1.4-6.2 1.8-6.2.4 0 .9 2.2 1.3 4.8zm-769.2 54.5c15 5.5 26.7 15.6 33.2 28.9 11.5 23.4 7.4 49.3-10.8 67.4-28.3 28.2-75.3 20.7-93.2-14.8-11-21.8-7.4-47.8 9.1-65.6 8.7-9.4 19.4-15.5 32-18.2 7.2-1.6 22.3-.4 29.7 2.3zm102.8 26.2v29.5h2.5c2 0 2.5.5 2.5 2.5v2.5h26.6c24.8 0 26.5.1 26.1 1.7-.3 1-.8 3.6-1.2 5.8-.3 2.2-2.5 7.8-4.7 12.5-14.8 30.9-55.2 42.5-83.5 24-30.8-20.2-36.4-62.3-11.8-88.8 10.6-11.5 25.6-18.7 39.8-19.1l3.7-.1v29.5zm139.2-26.2c20 7.3 34.1 23.2 38.3 43.2 2.8 13.6 1.5 24.5-4.5 37.1-7.7 16-22.1 27.7-39.2 31.8l-2.8.6v-57h-2.5c-2 0-2.5-.5-2.5-2.5v-2.5h-32c-24.9 0-32-.3-32-1.3 0-.6.7-4 1.5-7.5 4.3-18.3 18.7-34.7 36-41.1 9.1-3.4 13.1-4 23.5-3.6 6.9.2 11.3 1 16.2 2.8zm121 0c20 7.3 34.1 23.2 38.3 43.2 2.8 13.6 1.5 24.5-4.5 37.1-7.7 16-22.1 27.7-39.2 31.8l-2.8.6v-57h-2.7c-2.6 0-2.6 0-.8-2 1.9-2.1 1.7-2.3-19-23-11.6-11.6-21.2-21-21.5-21-.3 0-2.1 1.4-4 3l-3.5 2.9 20.8 20.8 20.7 20.8v56.8l-6.1-.7c-30.2-3.1-52.9-28.2-52.9-58.6 0-23.3 15.7-45.8 37.5-53.9 9.1-3.4 13.1-4 23.5-3.6 6.9.2 11.3 1 16.2 2.8zm121 0c15 5.5 26.7 15.6 33.2 28.9 11.5 23.4 7.4 49.3-10.8 67.4-28.3 28.2-75.3 20.7-93.2-14.8-11-21.8-7.4-47.8 9.1-65.6 8.7-9.4 19.4-15.5 32-18.2 7.2-1.6 22.3-.4 29.7 2.3zm120.9-.1c7.4 2.7 14.1 6.5 18.9 10.4l3.2 2.7-19.3 19.3c-19.1 19.1-19.3 19.3-17.4 21.4 1.8 2 1.8 2-.8 2H979v58.3l-6.1-.7c-30.2-3.1-52.9-28.2-52.9-58.6 0-23.3 15.7-45.8 37.5-53.9 9.1-3.4 13.1-4 23.5-3.6 6.8.2 11.3 1 16.1 2.7zm121 0c7.4 2.7 14.1 6.5 18.9 10.4l3.2 2.7-19.3 19.3c-19.1 19.1-19.3 19.3-17.4 21.4 1.8 2 1.8 2-.8 2h-2.7v58.3l-6.1-.7c-30.2-3.1-52.9-28.2-52.9-58.6 0-23.3 15.7-45.8 37.5-53.9 9.1-3.4 13.1-4 23.5-3.6 6.8.2 11.3 1 16.1 2.7zm121.1.1c15 5.5 26.7 15.6 33.2 28.9 11.5 23.4 7.4 49.4-10.8 67.3-23.7 23.5-59.3 23.3-82.6-.4-17.9-18.2-22-43.8-10.8-67 6.8-13.9 23.7-27.1 39.2-30.7 9-2 23.4-1.2 31.8 1.9zm-723.8.8c19.4 7.2 33.3 24.7 37 46.6l.6 3.3h-48v-53.2l2.5.6c1.4.4 5 1.6 7.9 2.7zm515.7 29.5c7.8 16.2 7.7 33.7-.1 50-7.7 16-22.1 27.7-39.2 31.8l-2.8.6v-55.5l18.3-18.3c20.5-20.6 18.5-19.8 23.8-8.6zm121 0c7.8 16.2 7.7 33.7-.1 50-7.7 16-22.1 27.7-39.2 31.8l-2.8.6v-55.5l18.3-18.3c20.5-20.6 18.5-19.8 23.8-8.6zm-536.1 57v26.7l-6.1-.7c-26.8-2.8-47.5-22.3-52.3-49.4l-.5-3.2H616v26.6zm-181-22.2c0 3.3 3.4 12.6 7.2 19.9 4.3 8.3 15.4 19.3 23.8 23.5 3.6 1.8 9.8 4 13.7 5 4 .9 7.3 1.9 7.3 2.2 0 .3-3.2 1.3-7 2.2-14.9 3.6-27.7 12.5-35.9 25.2-4.5 6.8-9 18.3-9.1 22.7 0 5.1-1.4 3.9-2.7-2.3-1.6-7.9-8-20.8-13.4-27.1-6.1-7-15.9-13.6-25.2-16.8-4.5-1.6-9.2-2.9-10.4-2.9-3.9 0-2.5-1.7 1.9-2.4 11.1-1.8 25.9-10.3 33.7-19.3 5.5-6.3 11.9-19.3 13.4-27 1.1-5.9 2.7-7.6 2.7-2.9zm121 0c0 3.3 3.4 12.6 7.2 19.9 4.3 8.3 15.4 19.3 23.8 23.5 3.6 1.8 9.8 4 13.7 5 4 .9 7.3 1.9 7.3 2.2 0 .3-3.2 1.3-7 2.2-14.9 3.6-27.7 12.5-35.9 25.2-4.5 6.8-9 18.3-9.1 22.7 0 5.1-1.4 3.9-2.7-2.3-1.6-7.9-8-20.8-13.4-27.1-6.1-7-15.9-13.6-25.2-16.8-4.5-1.6-9.2-2.9-10.4-2.9-3.9 0-2.5-1.7 1.9-2.4 11.1-1.8 25.9-10.3 33.7-19.3 5.5-6.3 11.9-19.3 13.4-27 1.1-5.9 2.7-7.6 2.7-2.9zm121 0c0 3.3 3.4 12.6 7.2 19.9 4.3 8.3 15.4 19.3 23.8 23.5 3.6 1.8 9.8 4 13.7 5 4 .9 7.3 1.9 7.3 2.2 0 .3-3.2 1.3-7 2.2-14.9 3.6-27.7 12.5-35.9 25.2-4.5 6.8-9 18.3-9.1 22.7 0 5.1-1.4 3.9-2.7-2.3-1.6-8-8-20.8-13.4-27.1-6.4-7.4-16.6-14-26.4-17.2-4.7-1.5-8.5-3.1-8.5-3.6 0-.4 2.4-1.5 5.3-2.3 17.9-5.2 30.6-15.9 38.4-32.3 1.9-3.9 4-9.8 4.6-13.1 1.1-5.8 2.7-7.5 2.7-2.8zm121 0c0 3.3 3.4 12.6 7.2 19.9 4.3 8.3 15.4 19.3 23.8 23.5 3.6 1.8 9.8 4 13.7 5 4 .9 7.3 1.9 7.3 2.2 0 .3-3.2 1.3-7 2.2-14.9 3.6-27.7 12.5-35.9 25.2-4.5 6.8-9 18.3-9.1 22.7 0 5.1-1.4 3.9-2.7-2.3-1.6-8-8-20.8-13.4-27.1-6.4-7.4-16.6-14-26.4-17.2-4.7-1.5-8.5-3.1-8.5-3.6 0-.4 2.4-1.5 5.3-2.3 17.9-5.2 30.6-15.9 38.4-32.3 1.9-3.9 4-9.8 4.6-13.1 1.1-5.8 2.7-7.5 2.7-2.8zm121 0c0 3.3 3.4 12.6 7.2 19.9 4.3 8.3 15.4 19.3 23.8 23.5 3.6 1.8 9.8 4 13.7 5 4 .9 7.3 1.9 7.3 2.2 0 .3-3.2 1.3-7 2.2-14.9 3.6-27.7 12.5-35.9 25.2-4.5 6.8-9 18.3-9.1 22.7 0 5.1-1.4 3.9-2.7-2.3-1.6-7.9-8-20.8-13.4-27.1-6.1-7-15.9-13.6-25.2-16.8-4.5-1.6-9.2-2.9-10.4-2.9-3.9 0-2.5-1.7 1.9-2.4 11.1-1.8 25.9-10.3 33.7-19.3 5.5-6.3 11.9-19.3 13.4-27 1.1-5.9 2.7-7.6 2.7-2.9zm121 0c0 3.3 3.4 12.6 7.2 19.9 4.3 8.3 15.4 19.3 23.8 23.5 3.6 1.8 9.8 4 13.7 5 4 .9 7.3 1.9 7.3 2.2 0 .3-3.2 1.3-7 2.2-14.9 3.6-27.7 12.5-35.9 25.2-4.5 6.8-9 18.3-9.1 22.7 0 5.1-1.4 3.9-2.7-2.3-1.6-8-8-20.8-13.4-27.1-6.4-7.4-16.6-14-26.4-17.2-4.7-1.5-8.5-3.1-8.5-3.6 0-.4 2.4-1.5 5.3-2.3 17.9-5.2 30.6-15.9 38.4-32.3 1.9-3.9 4-9.8 4.6-13.1 1.1-5.8 2.7-7.5 2.7-2.8zm121.4 1.4c1.4 10.6 9.1 24.9 17.5 32.5 8.7 7.8 21.5 14.3 30.4 15.4 2.6.3 4.7.9 4.7 1.3s-2.3 1-5.1 1.3c-7.1.9-22.1 8.4-29 14.6-3.1 2.7-7.5 7.9-9.8 11.5-4.5 6.8-9 18.3-9.1 22.7 0 5.1-1.4 3.9-2.7-2.3-1.6-8-8-20.8-13.4-27.1-6.4-7.4-16.6-14-26.4-17.2-4.7-1.5-8.5-3.1-8.5-3.6 0-.4 2.4-1.5 5.3-2.3 17.9-5.2 30.6-15.9 38.4-32.3 1.9-3.9 4-9.9 4.6-13.2.6-3.4 1.4-6.1 1.8-6.1.4 0 .9 2.2 1.3 4.8zm-769.2 54.5c21.5 7.8 35.3 24.5 39.2 47.4l.6 3.3h-53v2.5c0 2-.5 2.5-2.5 2.5H374v58.3l-6.1-.7c-30.2-3.1-52.9-28.2-52.9-58.6 0-23.3 15.7-45.8 37.5-53.9 9.1-3.4 13.1-4 23.5-3.6 6.9.2 11.3 1 16.2 2.8zm121 0c21.5 7.8 35.3 24.5 39.2 47.4l.6 3.3h-58.5c-46.1 0-58.5-.3-58.5-1.3 0-.6.7-4 1.5-7.5 4.3-18.3 18.7-34.7 36-41.1 9.1-3.4 13.1-4 23.5-3.6 6.9.2 11.3 1 16.2 2.8zM616 1312v27h-29.5c-22.9 0-29.5-.3-29.5-1.3 0-.6.7-4 1.5-7.5 3.2-13.5 13.2-27.9 24.8-35.5 8.2-5.4 20.1-9.3 29-9.6l3.7-.1v27zm121 31.6v58.7l-6.1-.7c-30.2-3.1-52.9-28.2-52.9-58.6 0-23.3 15.7-45.8 37.5-53.9 6.9-2.6 12.4-3.8 17.8-4l3.7-.1v58.6zm139.2-55.3c15 5.5 26.7 15.6 33.2 28.9 11.5 23.4 7.4 49.3-10.8 67.4-28.3 28.2-75.3 20.7-93.2-14.8-11-21.8-7.4-47.8 9.1-65.6 8.7-9.4 19.4-15.5 32-18.2 7.2-1.6 22.3-.4 29.7 2.3zm102.8 55.3v58.7l-6.1-.7c-30.2-3.1-52.9-28.2-52.9-58.6 0-23.3 15.7-45.8 37.5-53.9 6.9-2.6 12.4-3.8 17.8-4l3.7-.1v58.6zm121 0v58.7l-6.1-.7c-30.2-3.1-52.9-28.2-52.9-58.6 0-23.3 15.7-45.8 37.5-53.9 6.9-2.6 12.4-3.8 17.8-4l3.7-.1v58.6zm139.2-55.3c15 5.5 26.7 15.6 33.2 28.9 11.5 23.4 7.4 49.4-10.8 67.3-23.7 23.5-59.3 23.3-82.6-.4-17.9-18.2-22-43.8-10.8-67 6.8-13.9 23.7-27.1 39.2-30.7 9-2 23.4-1.2 31.8 1.9zm-602.8.8c13 4.8 24.9 15.6 31.1 28.2 11.4 23.3 7.2 49.2-10.9 67.3-34 33.9-90.5 15.4-99-32.4l-.5-3.2H621v-2.5c0-2 .5-2.5 2.5-2.5h2.5v-58.2l2.5.6c1.4.4 5 1.6 7.9 2.7zm121 0c17.9 6.6 32.1 23.4 36.1 42.4 2.8 13.6 1.5 24.5-4.5 37.1-7.7 16-22.1 27.7-39.2 31.8l-2.8.6v-115.2l2.5.6c1.4.4 5 1.6 7.9 2.7zm242 0c17.9 6.6 32.1 23.4 36.1 42.4 2.8 13.6 1.5 24.5-4.5 37.1-7.7 16-22.1 27.7-39.2 31.8l-2.8.6v-115.2l2.5.6c1.4.4 5 1.6 7.9 2.7zm121 0c17.9 6.6 32.1 23.4 36.1 42.4 2.8 13.6 1.5 24.5-4.5 37.1-7.7 16-22.1 27.7-39.2 31.8l-2.8.6v-115.2l2.5.6c1.4.4 5 1.6 7.9 2.7zm-688.7 61.6c-.3 1-.8 3.6-1.2 5.8-1.1 6.6-8 19.8-13.7 26.1-7.9 8.6-18.9 15.1-30 17.8l-2.8.6v-52h24.1c22.4 0 24 .1 23.6 1.7zm121 0c-.3 1-.8 3.6-1.2 5.8-.3 2.2-2.5 7.8-4.7 12.5-5.3 11.1-15 21-25.5 26.3-36.3 18-77.5-2.9-84.7-43.1l-.5-3.2h58.5c55.3 0 58.5.1 58.1 1.7zm-117.7 2.7c0 3.3 3.4 12.6 7.2 19.9 4.3 8.3 15.4 19.3 23.8 23.5 3.6 1.8 9.8 4 13.7 5 4 .9 7.3 1.9 7.3 2.2 0 .3-3.2 1.3-7 2.2-14.9 3.6-27.7 12.5-35.9 25.2-4.5 6.8-9 18.3-9.1 22.7 0 5.1-1.4 3.9-2.7-2.3-1.6-8-8-20.8-13.4-27.1-6.4-7.4-16.6-14-26.4-17.2-4.7-1.5-8.5-3.1-8.5-3.6 0-.4 2.4-1.5 5.3-2.3 17.9-5.2 30.6-15.9 38.4-32.3 1.9-3.9 4-9.8 4.6-13.1 1.1-5.8 2.7-7.5 2.7-2.8zm121 0c0 3.3 3.4 12.6 7.2 19.9 4.3 8.3 15.4 19.3 23.8 23.5 3.6 1.8 9.8 4 13.7 5 4 .9 7.3 1.9 7.3 2.2 0 .3-3.2 1.3-7 2.2-14.9 3.6-27.7 12.5-35.9 25.2-4.5 6.8-9 18.3-9.1 22.7 0 5.1-1.4 3.9-2.7-2.3-1.6-7.9-8-20.8-13.4-27.1-6.1-7-15.9-13.6-25.2-16.8-4.5-1.6-9.2-2.9-10.4-2.9-3.9 0-2.5-1.7 1.9-2.4 11.1-1.8 25.9-10.3 33.7-19.3 5.5-6.3 11.9-19.3 13.4-27 1.1-5.9 2.7-7.6 2.7-2.9zm121 0c0 3.3 3.4 12.6 7.2 19.9 4.3 8.3 15.4 19.3 23.8 23.5 3.6 1.8 9.8 4 13.7 5 4 .9 7.3 1.9 7.3 2.2 0 .3-3.2 1.3-7 2.2-14.9 3.6-27.7 12.5-35.9 25.2-4.5 6.8-9 18.3-9.1 22.7 0 5.1-1.4 3.9-2.7-2.3-1.6-7.9-8-20.8-13.4-27.1-6.1-7-15.9-13.6-25.2-16.8-4.5-1.6-9.2-2.9-10.4-2.9-3.9 0-2.5-1.7 1.9-2.4 11.1-1.8 25.9-10.3 33.7-19.3 5.5-6.3 11.9-19.3 13.4-27 1.1-5.9 2.7-7.6 2.7-2.9zm121 0c0 3.3 3.4 12.6 7.2 19.9 4.3 8.3 15.4 19.3 23.8 23.5 3.6 1.8 9.8 4 13.7 5 4 .9 7.3 1.9 7.3 2.2 0 .3-3.2 1.3-7 2.2-14.9 3.6-27.7 12.5-35.9 25.2-4.5 6.8-9 18.3-9.1 22.7 0 5.1-1.4 3.9-2.7-2.3-1.6-8-8-20.8-13.4-27.1-6.4-7.4-16.6-14-26.4-17.2-4.7-1.5-8.5-3.1-8.5-3.6 0-.4 2.4-1.5 5.3-2.3 17.9-5.2 30.6-15.9 38.4-32.3 1.9-3.9 4-9.8 4.6-13.1 1.1-5.8 2.7-7.5 2.7-2.8zm121 0c0 3.3 3.4 12.6 7.2 19.9 4.3 8.3 15.4 19.3 23.8 23.5 3.6 1.8 9.8 4 13.7 5 4 .9 7.3 1.9 7.3 2.2 0 .3-3.2 1.3-7 2.2-14.9 3.6-27.7 12.5-35.9 25.2-4.5 6.8-9 18.3-9.1 22.7 0 5.1-1.4 3.9-2.7-2.3-1.6-7.9-8-20.8-13.4-27.1-6.1-7-15.9-13.6-25.2-16.8-4.5-1.6-9.2-2.9-10.4-2.9-3.9 0-2.5-1.7 1.9-2.4 11.1-1.8 25.9-10.3 33.7-19.3 5.5-6.3 11.9-19.3 13.4-27 1.1-5.9 2.7-7.6 2.7-2.9zm121 0c0 3.3 3.4 12.6 7.2 19.9 4.3 8.3 15.4 19.3 23.8 23.5 3.6 1.8 9.8 4 13.7 5 4 .9 7.3 1.9 7.3 2.2 0 .3-3.2 1.3-7 2.2-14.9 3.6-27.7 12.5-35.9 25.2-4.5 6.8-9 18.3-9.1 22.7 0 5.1-1.4 3.9-2.7-2.3-1.6-8-8-20.8-13.4-27.1-6.4-7.4-16.6-14-26.4-17.2-4.7-1.5-8.5-3.1-8.5-3.6 0-.4 2.4-1.5 5.3-2.3 17.9-5.2 30.6-15.9 38.4-32.3 1.9-3.9 4-9.8 4.6-13.1 1.1-5.8 2.7-7.5 2.7-2.8zm121.4 1.4c1.4 10.6 9.1 24.9 17.5 32.5 8.7 7.8 21.5 14.3 30.4 15.4 2.6.3 4.7.9 4.7 1.3s-2.3 1-5.1 1.3c-7.1.9-22.1 8.4-29 14.6-3.1 2.7-7.5 7.9-9.8 11.5-4.5 6.8-9 18.3-9.1 22.7 0 5.1-1.4 3.9-2.7-2.3-1.6-8-8-20.8-13.4-27.1-6.4-7.4-16.6-14-26.4-17.2-4.7-1.5-8.5-3.1-8.5-3.6 0-.4 2.4-1.5 5.3-2.3 17.9-5.2 30.6-15.9 38.4-32.3 1.9-3.9 4-9.9 4.6-13.2.6-3.4 1.4-6.1 1.8-6.1.4 0 .9 2.2 1.3 4.8zM374 1435.5v29.5h2.5c2 0 2.5.5 2.5 2.5v2.5h26.6c24.8 0 26.5.1 26.1 1.7-.3 1-.8 3.6-1.2 5.8-.3 2.2-2.5 7.8-4.7 12.5-14.8 30.9-55.2 42.5-83.5 24-30.8-20.2-36.4-62.3-11.8-88.8 10.6-11.5 25.6-18.7 39.8-19.1l3.7-.1v29.5zm139.2-26.2c21.5 7.8 35.3 24.5 39.2 47.4l.6 3.3h-58.5c-46.1 0-58.5-.3-58.5-1.3 0-.6.7-4 1.5-7.5 4.3-18.3 18.7-34.7 36-41.1 9.1-3.4 13.1-4 23.5-3.6 6.9.2 11.3 1 16.2 2.8zm121 0c21.5 7.8 35.3 24.5 39.2 47.4l.6 3.3h-58.5c-46.1 0-58.5-.3-58.5-1.3 0-.6.7-4 1.5-7.5 4.3-18.3 18.7-34.7 36-41.1 9.1-3.4 13.1-4 23.5-3.6 6.9.2 11.3 1 16.2 2.8zM737 1433v27h-29.5c-22.9 0-29.5-.3-29.5-1.3 0-.6.7-4 1.5-7.5 3.2-13.5 13.2-27.9 24.8-35.5 8.2-5.4 20.1-9.3 29-9.6l3.7-.1v27zm139.2-23.7c15 5.5 26.7 15.6 33.2 28.9 11.5 23.4 7.4 49.3-10.8 67.4-28.3 28.2-75.3 20.7-93.2-14.8-11-21.8-7.4-47.8 9.1-65.6 8.7-9.4 19.4-15.5 32-18.2 7.2-1.6 22.3-.4 29.7 2.3zm102.8 26.2v29.5h2.5c2 0 2.5.5 2.5 2.5v2.5h26.6c24.8 0 26.5.1 26.1 1.7-.3 1-.8 3.6-1.2 5.8-.3 2.2-2.5 7.8-4.7 12.5-14.8 30.9-55.2 42.5-83.5 24-30.8-20.2-36.4-62.3-11.8-88.8 10.6-11.5 25.6-18.7 39.8-19.1l3.7-.1v29.5zm121-2.5v27h-29.5c-22.9 0-29.5-.3-29.5-1.3 0-.6.7-4 1.5-7.5 3.2-13.5 13.2-27.9 24.8-35.5 8.2-5.4 20.1-9.3 29-9.6l3.7-.1v27zm139.2-23.7c15 5.5 26.7 15.6 33.2 28.9 11.5 23.4 7.4 49.4-10.8 67.3-23.7 23.5-59.3 23.3-82.6-.4-17.9-18.2-22-43.8-10.8-67 6.8-13.9 23.7-27.1 39.2-30.7 9-2 23.4-1.2 31.8 1.9zm-844.8.8c19.4 7.2 33.3 24.7 37 46.6l.6 3.3h-48v-53.2l2.5.6c1.4.4 5 1.6 7.9 2.7zm363 0c13 4.8 24.9 15.6 31.1 28.2 11.4 23.3 7.2 49.2-10.9 67.3-34 33.9-90.5 15.4-99-32.4l-.5-3.2H742v-2.5c0-2 .5-2.5 2.5-2.5h2.5v-58.2l2.5.6c1.4.4 5 1.6 7.9 2.7zm242 0c19.4 7.2 33.3 24.7 37 46.6l.6 3.3h-48v-53.2l2.5.6c1.4.4 5 1.6 7.9 2.7zm121 0c13 4.8 24.9 15.6 31.1 28.2 11.4 23.3 7.2 49.2-10.9 67.3-34 33.9-90.5 15.4-99-32.4l-.5-3.2h63.9v-2.5c0-2 .5-2.5 2.5-2.5h2.5v-58.2l2.5.6c1.4.4 5 1.6 7.9 2.7zm-567.7 61.6c-.3 1-.8 3.6-1.2 5.8-.3 2.2-2.5 7.8-4.7 12.5-5.3 11.1-15 21-25.5 26.3-36.3 18-77.5-2.9-84.7-43.1l-.5-3.2h58.5c55.3 0 58.5.1 58.1 1.7zm121 0c-.3 1-.8 3.6-1.2 5.8-.3 2.2-2.5 7.8-4.7 12.5-5.3 11.1-15 21-25.5 26.3-36.3 18-77.5-2.9-84.7-43.1l-.5-3.2h58.5c55.3 0 58.5.1 58.1 1.7z"/><path d="M717 151.5L695.5 173l3.5 3.5 3.5 3.5 21.5-21.5 21.5-21.5-3.5-3.5-3.5-3.5-21.5 21.5zM717 272.5L695.5 294l3.5 3.5 3.5 3.5 21.5-21.5 21.5-21.5-3.5-3.5-3.5-3.5-21.5 21.5zM354 393.5L332.5 415l3.5 3.5 3.5 3.5 21.5-21.5 21.5-21.5-3.5-3.5-3.5-3.5-21.5 21.5zM717 393.5L695.5 415l3.5 3.5 3.5 3.5 21.5-21.5 21.5-21.5-3.5-3.5-3.5-3.5-21.5 21.5zM838 393.5L816.5 415l3.5 3.5 3.5 3.5 21.5-21.5 21.5-21.5-3.5-3.5-3.5-3.5-21.5 21.5zM354 514.5L332.5 536l3.5 3.5 3.5 3.5 21.5-21.5 21.5-21.5-3.5-3.5-3.5-3.5-21.5 21.5zM717 514.5L695.5 536l3.5 3.5 3.5 3.5 21.5-21.5 21.5-21.5-3.5-3.5-3.5-3.5-21.5 21.5zM838 514.5L816.5 536l3.5 3.5 3.5 3.5 21.5-21.5 21.5-21.5-3.5-3.5-3.5-3.5-21.5 21.5zM354 1119.5l-21.5 21.5 3.5 3.5 3.5 3.5 21.5-21.5 21.5-21.5-3.5-3.5-3.5-3.5-21.5 21.5zM820 1058.5l-3.4 3.5 21.4 21.5 21.5 21.5 3.5-3.5 3.5-3.5-21.5-21.5-21.6-21.6-3.4 3.6zM941 1058.5l-3.4 3.5 21.4 21.5 21.5 21.5 3.5-3.5 3.5-3.5-21.5-21.5-21.6-21.6-3.4 3.6zM354 1240.5l-21.5 21.5 3.5 3.5 3.5 3.5 21.5-21.5 21.5-21.5-3.5-3.5-3.5-3.5-21.5 21.5zM820 1179.5l-3.4 3.5 21.4 21.5 21.5 21.5 3.5-3.5 3.5-3.5-21.5-21.5-21.6-21.6-3.4 3.6zM1183 1179.5l-3.4 3.5 21.4 21.5 21.5 21.5 3.5-3.5 3.5-3.5-21.5-21.5-21.6-21.6-3.4 3.6zM820 1300.5l-3.4 3.5 21.4 21.5 21.5 21.5 3.5-3.5 3.5-3.5-21.5-21.5-21.6-21.6-3.4 3.6zM1183 1300.5l-3.4 3.5 21.4 21.5 21.5 21.5 3.5-3.5 3.5-3.5-21.5-21.5-21.6-21.6-3.4 3.6zM820 1421.5l-3.4 3.5 21.4 21.5 21.5 21.5 3.5-3.5 3.5-3.5-21.5-21.5-21.6-21.6-3.4 3.6zM1183 1421.5l-3.4 3.5 21.4 21.5 21.5 21.5 3.5-3.5 3.5-3.5-21.5-21.5-21.6-21.6-3.4 3.6z"/></svg>